<svg width="1024" height="582" viewBox="0 0 1024 582" fill="none" xmlns="http://www.w3.org/2000/svg">
<path d="M292.665 549.707L785.324 457L785.324 490L326.5 576L292.665 549.707Z" fill="#D9D9D9"/>
<path d="M4 190.998L63.5 94.998L456.5 67.998L512 86.498L550.5 190.998L776 339.498L765.5 465.498L274.5 549.998L145 452.498L48 382.498L4 349.998V190.998Z" fill="#6D8089"/>
<path d="M48 241.498L93 117.998M48 241.498L4 190.998M48 241.498L550.5 190.998M48 241.498L290.5 416.998M48 241.498V382.498M93 117.998L63.5 94.998M93 117.998L512 86.498M63.5 94.998L4 190.998M63.5 94.998L456.5 67.998L512 86.498M4 190.998V349.998L48 382.498M48 382.498L145 452.498L274.5 549.998M550.5 190.998L512 86.498M550.5 190.998L776 339.498M776 339.498L290.5 416.998M776 339.498L765.5 465.498L274.5 549.998M290.5 416.998L274.5 549.998" stroke="black" stroke-width="8"/>
<rect x="2.20365" y="1.7794" width="104.259" height="78.495" rx="14" transform="matrix(0.994522 -0.104528 0.107305 0.994226 427.821 212.366)" fill="#5C6D77"/>
<rect x="2.20365" y="1.7794" width="104.259" height="78.495" rx="14" transform="matrix(0.994522 -0.104528 0.107305 0.994226 427.821 212.366)" stroke="black" stroke-width="4"/>
<rect x="2.20365" y="1.7794" width="104" height="78" rx="14" transform="matrix(0.994522 -0.104528 0.107305 0.994226 436.636 219.483)" stroke="black" stroke-width="4"/>
<rect x="2.20365" y="1.7794" width="96" height="70" rx="10" transform="matrix(0.994522 -0.104528 0.107305 0.994226 441.043 223.041)" fill="#B86A1D"/>
<rect x="2.20365" y="1.7794" width="96" height="70" rx="10" transform="matrix(0.994522 -0.104528 0.107305 0.994226 441.043 223.041)" stroke="#9E5B19" stroke-width="4"/>
<path d="M483.356 249.543L479.999 249.896L484.238 231.9L488.12 231.491L496.112 248.202L492.756 248.555L486.63 235.247L486.495 235.262L483.356 249.543ZM482.732 242.727L491.886 241.765L492.158 244.29L483.004 245.252L482.732 242.727ZM499.458 230.3L501.331 247.654L498.263 247.976L496.39 230.622L499.458 230.3ZM505.682 229.646L507.555 246.999L504.487 247.322L502.614 229.968L505.682 229.646ZM463.007 265.956L462.722 263.32L476.572 261.865L476.856 264.5L471.491 265.064L473.08 279.782L469.961 280.11L468.372 265.392L463.007 265.956ZM482.983 279.007C482.158 279.094 481.399 279.025 480.706 278.801C480.018 278.57 479.451 278.185 479.004 277.643C478.562 277.101 478.296 276.403 478.203 275.55C478.124 274.816 478.194 274.195 478.414 273.686C478.633 273.177 478.962 272.754 479.4 272.417C479.838 272.079 480.342 271.806 480.914 271.598C481.491 271.383 482.092 271.208 482.718 271.074C483.472 270.915 484.083 270.779 484.551 270.667C485.019 270.549 485.352 270.411 485.552 270.253C485.758 270.089 485.844 269.86 485.813 269.566L485.807 269.515C485.738 268.877 485.496 268.403 485.079 268.092C484.663 267.782 484.099 267.664 483.387 267.739C482.635 267.818 482.057 268.044 481.651 268.418C481.251 268.791 480.999 269.209 480.895 269.672L477.986 269.566C478.127 268.751 478.428 268.051 478.891 267.466C479.353 266.874 479.945 266.406 480.668 266.062C481.391 265.712 482.207 265.489 483.116 265.393C483.744 265.327 484.376 265.335 485.013 265.417C485.651 265.498 486.245 265.681 486.796 265.966C487.346 266.246 487.807 266.657 488.18 267.201C488.559 267.743 488.795 268.447 488.888 269.311L489.828 278.022L486.879 278.332L486.686 276.544L486.584 276.555C486.437 276.936 486.21 277.303 485.905 277.655C485.606 278 485.212 278.296 484.724 278.541C484.241 278.781 483.661 278.936 482.983 279.007ZM483.536 276.67C484.152 276.605 484.673 276.427 485.099 276.137C485.524 275.841 485.836 275.477 486.035 275.044C486.24 274.612 486.316 274.155 486.265 273.675L486.099 272.141C486.012 272.23 485.856 272.321 485.631 272.413C485.413 272.505 485.165 272.591 484.888 272.671C484.611 272.752 484.336 272.826 484.063 272.895C483.79 272.964 483.554 273.023 483.354 273.072C482.903 273.183 482.504 273.327 482.158 273.507C481.811 273.686 481.547 273.914 481.365 274.19C481.183 274.46 481.113 274.793 481.156 275.189C481.217 275.754 481.469 276.158 481.913 276.403C482.357 276.648 482.898 276.737 483.536 276.67ZM502.17 267.041L499.406 267.64C499.296 267.366 499.129 267.115 498.905 266.887C498.686 266.659 498.404 266.486 498.06 266.368C497.716 266.25 497.306 266.216 496.832 266.266C496.193 266.333 495.671 266.527 495.266 266.85C494.866 267.172 494.693 267.553 494.746 267.993C494.782 268.372 494.953 268.665 495.261 268.873C495.575 269.08 496.071 269.225 496.749 269.308L499.02 269.549C500.281 269.685 501.242 270.01 501.903 270.523C502.57 271.036 502.956 271.758 503.063 272.689C503.145 273.509 502.983 274.257 502.576 274.934C502.174 275.605 501.574 276.159 500.776 276.597C499.977 277.035 499.035 277.312 497.95 277.426C496.357 277.593 495.038 277.395 493.994 276.83C492.95 276.26 492.27 275.386 491.954 274.208L494.915 273.605C495.114 274.179 495.45 274.592 495.923 274.845C496.396 275.098 496.986 275.187 497.692 275.113C498.421 275.037 498.99 274.825 499.398 274.48C499.812 274.133 499.996 273.74 499.948 273.299C499.908 272.926 499.731 272.634 499.416 272.421C499.107 272.208 498.647 272.068 498.034 272.001L495.763 271.768C494.486 271.64 493.515 271.299 492.849 270.746C492.183 270.188 491.802 269.434 491.705 268.484C491.613 267.682 491.755 266.965 492.133 266.331C492.515 265.691 493.084 265.168 493.841 264.763C494.602 264.352 495.503 264.091 496.542 263.982C498.068 263.822 499.304 264.02 500.25 264.578C501.201 265.135 501.842 265.956 502.17 267.041ZM508.37 271.943L507.962 268.241L508.453 268.189L512.568 262.469L516.153 262.092L511.089 269.103L510.453 269.17L508.37 271.943ZM506.013 276.321L504.14 258.967L507.209 258.645L509.082 275.999L506.013 276.321ZM514.184 275.462L509.307 269.985L511.142 267.607L517.854 275.076L514.184 275.462ZM528.859 264.236L526.095 264.835C525.985 264.561 525.818 264.31 525.594 264.082C525.375 263.854 525.093 263.681 524.749 263.563C524.405 263.445 523.995 263.411 523.521 263.46C522.882 263.528 522.36 263.722 521.955 264.045C521.555 264.367 521.382 264.748 521.435 265.188C521.471 265.567 521.642 265.86 521.95 266.068C522.264 266.275 522.76 266.42 523.437 266.503L525.709 266.744C526.97 266.88 527.931 267.205 528.592 267.718C529.259 268.23 529.645 268.953 529.751 269.884C529.834 270.704 529.672 271.452 529.265 272.129C528.863 272.8 528.263 273.354 527.464 273.792C526.666 274.23 525.724 274.506 524.639 274.62C523.046 274.788 521.727 274.589 520.683 274.025C519.639 273.455 518.959 272.581 518.643 271.403L521.604 270.8C521.803 271.374 522.139 271.787 522.612 272.04C523.085 272.293 523.675 272.382 524.381 272.308C525.11 272.231 525.679 272.02 526.087 271.675C526.501 271.328 526.685 270.935 526.637 270.494C526.597 270.121 526.42 269.829 526.105 269.616C525.796 269.403 525.335 269.263 524.722 269.196L522.451 268.963C521.175 268.834 520.203 268.494 519.538 267.941C518.872 267.383 518.491 266.629 518.394 265.679C518.302 264.877 518.444 264.16 518.821 263.526C519.204 262.886 519.773 262.363 520.53 261.958C521.291 261.547 522.192 261.286 523.231 261.177C524.757 261.017 525.993 261.215 526.939 261.773C527.89 262.33 528.53 263.151 528.859 264.236Z" fill="white"/>
<rect x="2.48973" y="1.67366" width="160" height="68.6667" rx="10" transform="matrix(0.991445 -0.130526 0.25342 0.967356 349.597 322.831)" fill="white"/>
<rect x="2.48973" y="1.67366" width="160" height="68.6667" rx="10" transform="matrix(0.991445 -0.130526 0.25342 0.967356 349.597 322.831)" stroke="black" stroke-width="4"/>
<rect x="2.48973" y="1.67366" width="160" height="60" rx="10" transform="matrix(0.991445 -0.130526 0.25342 0.967356 359.556 329.526)" fill="white"/>
<rect x="2.48973" y="1.67366" width="160" height="60" rx="10" transform="matrix(0.991445 -0.130526 0.25342 0.967356 359.556 329.526)" stroke="black" stroke-width="4"/>
<path d="M380.34 341.137L379.781 339L391.287 337.486L391.846 339.622L387.389 340.209L390.515 352.143L387.924 352.484L384.798 340.55L380.34 341.137ZM407.595 342.617C407.992 344.133 408.041 345.469 407.742 346.627C407.447 347.779 406.874 348.708 406.024 349.412C405.179 350.115 404.125 350.55 402.862 350.717C401.599 350.883 400.393 350.746 399.243 350.305C398.097 349.859 397.091 349.136 396.227 348.136C395.367 347.131 394.738 345.873 394.342 344.361C393.945 342.845 393.894 341.511 394.19 340.359C394.489 339.201 395.061 338.27 395.906 337.567C396.756 336.863 397.812 336.427 399.075 336.261C400.338 336.095 401.542 336.233 402.687 336.674C403.837 337.115 404.842 337.838 405.703 338.843C406.567 339.843 407.197 341.101 407.595 342.617ZM404.968 342.962C404.689 341.895 404.281 341.018 403.747 340.33C403.216 339.637 402.6 339.142 401.901 338.846C401.201 338.545 400.458 338.446 399.674 338.549C398.89 338.652 398.248 338.934 397.747 339.393C397.244 339.847 396.918 340.466 396.769 341.249C396.623 342.026 396.689 342.948 396.969 344.015C397.249 345.083 397.654 345.963 398.185 346.656C398.72 347.343 399.337 347.838 400.038 348.139C400.737 348.435 401.479 348.532 402.263 348.429C403.047 348.326 403.69 348.047 404.192 347.592C404.694 347.133 405.017 346.514 405.163 345.737C405.313 344.954 405.248 344.03 404.968 342.962ZM416.794 348.683L411.907 349.327L408.221 335.256L413.207 334.6C414.639 334.411 415.942 334.531 417.118 334.959C418.297 335.382 419.301 336.081 420.13 337.057C420.958 338.033 421.564 339.252 421.947 340.713C422.331 342.179 422.382 343.475 422.099 344.602C421.821 345.728 421.232 346.642 420.333 347.343C419.439 348.044 418.259 348.491 416.794 348.683ZM413.942 346.777L416.09 346.495C417.094 346.362 417.886 346.073 418.463 345.628C419.04 345.178 419.403 344.573 419.554 343.814C419.704 343.05 419.638 342.13 419.356 341.054C419.074 339.978 418.671 339.107 418.147 338.441C417.621 337.771 416.982 337.303 416.227 337.038C415.477 336.767 414.613 336.696 413.637 336.825L411.412 337.118L413.942 346.777ZM427.353 347.293L424.565 347.66L425.955 332.921L429.18 332.497L437.95 345.898L435.162 346.265L428.38 335.587L428.268 335.602L427.353 347.293ZM425.999 341.764L433.604 340.763L434.14 342.81L426.536 343.812L425.999 341.764ZM433.706 331.901L436.657 331.513L441.815 337.273L441.956 337.254L443.853 330.565L446.804 330.177L443.869 339.689L445.244 344.938L442.638 345.281L441.263 340.032L433.706 331.901ZM450.703 329.663L451.07 331.065C451.176 331.468 451.206 331.898 451.16 332.354C451.118 332.805 451.012 333.245 450.843 333.675C450.673 334.1 450.451 334.475 450.176 334.8L448.797 334.207C448.956 333.793 449.074 333.353 449.151 332.888C449.227 332.419 449.192 331.904 449.046 331.346L448.675 329.93L450.703 329.663ZM461.745 332.211C461.522 331.62 461.123 331.189 460.547 330.919C459.976 330.648 459.303 330.564 458.528 330.666C457.984 330.737 457.538 330.879 457.19 331.091C456.843 331.302 456.601 331.559 456.467 331.861C456.332 332.163 456.309 332.491 456.397 332.844C456.473 333.137 456.608 333.382 456.801 333.58C456.998 333.777 457.236 333.935 457.515 334.054C457.793 334.169 458.09 334.258 458.408 334.321C458.725 334.383 459.041 334.429 459.355 334.459L460.793 334.611C461.37 334.663 461.937 334.761 462.495 334.906C463.057 335.05 463.579 335.256 464.062 335.524C464.55 335.791 464.971 336.136 465.324 336.559C465.678 336.981 465.934 337.497 466.094 338.106C466.31 338.931 466.284 339.685 466.017 340.369C465.748 341.049 465.251 341.619 464.527 342.079C463.806 342.534 462.868 342.838 461.713 342.99C460.591 343.138 459.573 343.096 458.658 342.866C457.748 342.636 456.975 342.226 456.34 341.636C455.709 341.046 455.253 340.287 454.971 339.357L457.541 339.019C457.707 339.504 457.968 339.891 458.326 340.181C458.683 340.47 459.101 340.666 459.58 340.769C460.063 340.871 460.577 340.887 461.122 340.815C461.69 340.74 462.166 340.592 462.55 340.371C462.937 340.145 463.214 339.867 463.38 339.537C463.545 339.202 463.577 338.833 463.476 338.43C463.375 338.064 463.186 337.776 462.908 337.566C462.628 337.352 462.272 337.19 461.841 337.081C461.413 336.967 460.924 336.88 460.374 336.819L458.625 336.623C457.359 336.482 456.302 336.154 455.454 335.641C454.609 335.122 454.054 334.358 453.79 333.351C453.573 332.522 453.613 331.765 453.91 331.082C454.211 330.398 454.716 329.831 455.424 329.383C456.131 328.93 456.989 328.637 457.998 328.504C459.022 328.369 459.964 328.425 460.825 328.672C461.69 328.913 462.423 329.312 463.025 329.868C463.626 330.419 464.037 331.09 464.259 331.88L461.745 332.211ZM470.616 329.252L470.056 327.115L481.562 325.601L482.122 327.737L477.665 328.324L480.791 340.258L478.2 340.599L475.073 328.665L470.616 329.252ZM497.87 330.732C498.267 332.248 498.317 333.584 498.018 334.742C497.722 335.894 497.15 336.823 496.3 337.527C495.454 338.23 494.4 338.665 493.138 338.832C491.875 338.998 490.669 338.861 489.519 338.42C488.372 337.974 487.367 337.251 486.503 336.251C485.642 335.246 485.014 333.988 484.618 332.476C484.221 330.96 484.17 329.626 484.466 328.474C484.764 327.316 485.337 326.385 486.182 325.682C487.032 324.978 488.088 324.542 489.351 324.376C490.614 324.21 491.818 324.348 492.963 324.789C494.113 325.23 495.118 325.953 495.978 326.958C496.843 327.958 497.473 329.215 497.87 330.732ZM495.244 331.077C494.964 330.01 494.557 329.133 494.022 328.445C493.491 327.752 492.876 327.257 492.177 326.961C491.476 326.66 490.734 326.561 489.95 326.664C489.166 326.767 488.524 327.049 488.022 327.508C487.52 327.962 487.194 328.581 487.044 329.364C486.898 330.141 486.965 331.063 487.245 332.13C487.524 333.198 487.93 334.078 488.461 334.771C488.995 335.458 489.613 335.953 490.314 336.254C491.013 336.55 491.754 336.647 492.538 336.544C493.322 336.441 493.966 336.162 494.468 335.707C494.969 335.248 495.293 334.629 495.439 333.852C495.588 333.069 495.523 332.145 495.244 331.077ZM502.183 337.442L498.497 323.371L503.905 322.659C505.013 322.513 505.995 322.592 506.852 322.897C507.713 323.2 508.429 323.679 508.998 324.334C509.572 324.983 509.975 325.755 510.209 326.648C510.446 327.55 510.461 328.377 510.255 329.13C510.049 329.882 509.618 330.509 508.963 331.012C508.307 331.511 507.423 331.834 506.31 331.98L502.726 332.452L502.177 330.356L505.409 329.931C506.057 329.846 506.559 329.666 506.914 329.392C507.27 329.117 507.496 328.775 507.592 328.364C507.693 327.953 507.678 327.498 507.548 326.998C507.417 326.499 507.201 326.073 506.899 325.719C506.602 325.365 506.218 325.11 505.745 324.954C505.275 324.793 504.714 324.756 504.062 324.842L501.667 325.157L504.796 337.098L502.183 337.442ZM401.482 374.717L397.795 360.646L403.203 359.934C404.311 359.788 405.294 359.867 406.15 360.172C407.012 360.475 407.727 360.954 408.297 361.609C408.87 362.258 409.274 363.03 409.508 363.923C409.744 364.825 409.759 365.652 409.553 366.404C409.347 367.157 408.917 367.784 408.262 368.287C407.606 368.786 406.721 369.108 405.609 369.255L402.025 369.727L401.476 367.631L404.708 367.206C405.356 367.121 405.857 366.941 406.213 366.667C406.568 366.392 406.794 366.05 406.891 365.639C406.992 365.228 406.977 364.773 406.846 364.273C406.715 363.774 406.499 363.348 406.198 362.994C405.901 362.64 405.516 362.385 405.043 362.229C404.573 362.068 404.012 362.031 403.36 362.117L400.966 362.432L404.094 374.373L401.482 374.717ZM414.243 373.037L410.556 358.966L415.964 358.254C417.072 358.108 418.051 358.174 418.9 358.45C419.755 358.726 420.463 359.178 421.025 359.805C421.591 360.427 421.992 361.187 422.227 362.085C422.464 362.987 422.472 363.796 422.251 364.512C422.034 365.223 421.593 365.81 420.928 366.272C420.261 366.729 419.373 367.031 418.265 367.176L414.414 367.684L413.859 365.567L417.359 365.107C418.007 365.021 418.514 364.865 418.882 364.636C419.248 364.403 419.486 364.104 419.594 363.739C419.706 363.369 419.696 362.934 419.566 362.435C419.435 361.936 419.222 361.523 418.928 361.197C418.633 360.867 418.254 360.637 417.793 360.508C417.331 360.375 416.773 360.351 416.121 360.437L413.727 360.752L416.855 372.693L414.243 373.037ZM420.022 365.68L425.263 371.586L422.347 371.97L417.17 366.055L420.022 365.68ZM426.065 356.924L429.752 370.995L427.139 371.339L423.453 357.268L426.065 356.924ZM443.623 361.891C444.021 363.407 444.07 364.743 443.771 365.901C443.475 367.053 442.903 367.982 442.053 368.686C441.208 369.389 440.154 369.824 438.891 369.991C437.628 370.157 436.422 370.02 435.272 369.579C434.125 369.133 433.12 368.41 432.256 367.41C431.395 366.405 430.767 365.147 430.371 363.635C429.974 362.119 429.923 360.785 430.219 359.633C430.518 358.475 431.09 357.544 431.935 356.841C432.785 356.137 433.841 355.701 435.104 355.535C436.367 355.369 437.571 355.507 438.716 355.948C439.866 356.389 440.871 357.112 441.731 358.117C442.596 359.117 443.226 360.375 443.623 361.891ZM440.997 362.236C440.717 361.169 440.31 360.292 439.775 359.604C439.244 358.911 438.629 358.416 437.93 358.12C437.229 357.819 436.487 357.72 435.703 357.823C434.919 357.926 434.277 358.208 433.775 358.667C433.273 359.121 432.947 359.74 432.797 360.523C432.651 361.3 432.718 362.222 432.998 363.289C433.277 364.357 433.683 365.237 434.214 365.93C434.749 366.617 435.366 367.112 436.067 367.413C436.766 367.709 437.507 367.806 438.291 367.703C439.075 367.6 439.719 367.321 440.221 366.866C440.722 366.407 441.046 365.788 441.192 365.011C441.341 364.228 441.276 363.304 440.997 362.236ZM447.936 368.601L444.25 354.53L449.658 353.818C450.766 353.672 451.745 353.738 452.594 354.014C453.448 354.29 454.157 354.742 454.719 355.369C455.285 355.991 455.686 356.751 455.921 357.649C456.157 358.551 456.165 359.36 455.945 360.077C455.728 360.787 455.287 361.374 454.621 361.836C453.954 362.293 453.067 362.595 451.959 362.741L448.107 363.248L447.553 361.132L451.053 360.671C451.7 360.586 452.208 360.429 452.576 360.2C452.942 359.967 453.179 359.668 453.288 359.303C453.399 358.933 453.39 358.499 453.259 357.999C453.128 357.5 452.916 357.087 452.622 356.761C452.326 356.431 451.948 356.201 451.487 356.072C451.025 355.939 450.467 355.915 449.815 356.001L447.42 356.316L450.549 368.257L447.936 368.601ZM453.716 361.244L458.956 367.15L456.041 367.534L450.864 361.62L453.716 361.244ZM459.759 352.488L463.445 366.559L460.833 366.903L457.147 352.832L459.759 352.488ZM462.514 354.336L461.954 352.199L473.46 350.685L474.02 352.821L469.563 353.408L472.689 365.342L470.098 365.683L466.971 353.749L462.514 354.336ZM478.291 350.049L481.977 364.119L479.364 364.463L475.678 350.393L478.291 350.049ZM484.806 363.747L481.119 349.676L490.499 348.441L491.059 350.578L484.292 351.469L485.292 355.289L491.573 354.462L492.133 356.599L485.852 357.426L486.858 361.266L493.681 360.368L494.241 362.505L484.806 363.747ZM502.014 350.927C501.792 350.335 501.392 349.905 500.816 349.635C500.245 349.364 499.572 349.279 498.798 349.381C498.253 349.453 497.807 349.595 497.46 349.806C497.112 350.018 496.871 350.275 496.736 350.577C496.602 350.879 496.578 351.206 496.666 351.56C496.743 351.853 496.878 352.098 497.07 352.296C497.267 352.492 497.505 352.65 497.784 352.77C498.062 352.885 498.36 352.974 498.677 353.036C498.995 353.099 499.31 353.145 499.624 353.175L501.062 353.326C501.639 353.378 502.207 353.477 502.764 353.621C503.326 353.765 503.849 353.971 504.332 354.239C504.82 354.507 505.24 354.852 505.594 355.274C505.947 355.697 506.204 356.213 506.363 356.822C506.579 357.646 506.554 358.401 506.286 359.085C506.017 359.765 505.521 360.335 504.796 360.795C504.075 361.25 503.138 361.554 501.983 361.706C500.861 361.853 499.842 361.812 498.927 361.582C498.017 361.351 497.244 360.941 496.609 360.352C495.979 359.762 495.522 359.003 495.24 358.073L497.81 357.735C497.976 358.22 498.238 358.607 498.595 358.896C498.953 359.186 499.371 359.382 499.849 359.485C500.333 359.587 500.847 359.602 501.391 359.531C501.959 359.456 502.435 359.308 502.819 359.087C503.207 358.86 503.483 358.582 503.65 358.252C503.814 357.918 503.846 357.549 503.746 357.145C503.645 356.779 503.455 356.492 503.177 356.282C502.897 356.068 502.542 355.906 502.11 355.797C501.682 355.683 501.193 355.595 500.643 355.535L498.894 355.339C497.629 355.198 496.572 354.87 495.723 354.356C494.878 353.837 494.324 353.074 494.06 352.066C493.843 351.237 493.883 350.481 494.179 349.798C494.481 349.114 494.986 348.547 495.694 348.099C496.401 347.645 497.259 347.352 498.268 347.22C499.291 347.085 500.234 347.141 501.095 347.388C501.959 347.629 502.692 348.028 503.295 348.583C503.895 349.134 504.307 349.805 504.528 350.596L502.014 350.927Z" fill="#191919"/>
<rect x="109" y="131.678" width="88" height="88" rx="16" transform="rotate(-5.26112 109 131.678)" fill="black"/>
<g clip-path="url(#clip0_1025_5866)">
<path d="M139.331 181.301C139.644 184.966 136.935 188.182 133.27 188.496C129.605 188.809 126.389 186.1 126.075 182.434C125.762 178.769 128.471 175.553 132.137 175.24L138.764 174.673L139.331 181.301ZM142.645 181.018C142.332 177.352 145.041 174.137 148.706 173.823C152.371 173.51 155.587 176.219 155.901 179.884L157.317 196.454C157.631 200.119 154.922 203.335 151.256 203.648C147.591 203.962 144.375 201.252 144.062 197.587L142.645 181.018Z" fill="#E01E5A"/>
<path d="M146.997 153.84C143.332 154.153 140.116 151.444 139.803 147.779C139.489 144.114 142.198 140.898 145.864 140.585C149.529 140.271 152.745 142.98 153.058 146.646L153.625 153.273L146.997 153.84ZM147.285 157.204C150.95 156.891 154.166 159.6 154.479 163.265C154.793 166.931 152.083 170.146 148.418 170.46L131.798 171.881C128.133 172.194 124.917 169.485 124.604 165.82C124.291 162.154 127 158.939 130.665 158.625L147.285 157.204Z" fill="#36C5F0"/>
<path d="M174.413 161.561C174.099 157.896 176.808 154.68 180.474 154.367C184.139 154.053 187.355 156.762 187.668 160.428C187.982 164.093 185.273 167.309 181.607 167.622L174.979 168.189L174.413 161.561ZM171.099 161.845C171.412 165.51 168.703 168.726 165.038 169.039C161.372 169.352 158.157 166.643 157.843 162.978L156.422 146.358C156.109 142.693 158.818 139.477 162.483 139.164C166.149 138.85 169.364 141.559 169.678 145.225L171.099 161.845Z" fill="#2EB67D"/>
<path d="M166.743 188.972C170.408 188.658 173.624 191.367 173.937 195.033C174.251 198.698 171.542 201.914 167.876 202.227C164.211 202.54 160.995 199.831 160.682 196.166L160.115 189.538L166.743 188.972ZM166.459 185.658C162.794 185.971 159.578 183.262 159.265 179.597C158.952 175.931 161.661 172.715 165.326 172.402L181.946 170.981C185.611 170.668 188.827 173.377 189.14 177.042C189.454 180.707 186.744 183.923 183.079 184.237L166.459 185.658Z" fill="#ECB22E"/>
</g>
<rect x="212.562" y="122.141" width="88" height="88" rx="16" transform="rotate(-5.26112 212.562 122.141)" fill="black"/>
<g clip-path="url(#clip1_1025_5866)">
<path d="M229.939 171.935C229.745 171.343 230.433 170.9 230.91 171.301L256.188 192.588C256.665 192.99 256.346 193.743 255.729 193.653C243.743 191.904 233.702 183.448 229.939 171.935ZM228.358 162.671C228.363 162.852 228.446 163.023 228.585 163.14L264.626 193.49C264.765 193.607 264.948 193.66 265.127 193.633C266.63 193.409 268.095 193.083 269.516 192.662C269.995 192.52 270.113 191.907 269.731 191.585L229.593 157.785C229.211 157.464 228.627 157.684 228.568 158.18C228.395 159.653 228.323 161.152 228.358 162.671ZM230.103 151.483C230.017 151.731 230.095 152.005 230.296 152.173L275.142 189.937C275.342 190.106 275.625 190.136 275.855 190.01C276.95 189.405 278.005 188.738 279.014 188.015C279.349 187.775 279.361 187.287 279.047 187.022L232.503 147.829C232.189 147.564 231.71 147.66 231.531 148.03C230.99 149.148 230.513 150.301 230.103 151.483ZM234.854 143.605C234.598 143.389 234.551 143.012 234.752 142.744C240.035 135.7 248.183 130.852 257.646 130.041C275.272 128.53 290.785 141.593 292.296 159.219C293.107 168.682 289.717 177.536 283.676 183.941C283.446 184.185 283.066 184.203 282.81 183.987L234.854 143.605Z" fill="white"/>
</g>
<rect x="316.124" y="112.605" width="88" height="88" rx="16" transform="rotate(-5.26112 316.124 112.605)" fill="black"/>
<path fill-rule="evenodd" clip-rule="evenodd" d="M361.265 120.499C343.62 122.013 330.609 137.849 332.159 155.927C333.399 170.378 343.588 181.827 356.638 185.069C358.251 185.258 358.744 184.18 358.67 183.314C358.605 182.556 358.329 179.963 358.097 177.256C349.388 179.966 347.038 174.279 347.038 174.279C345.287 170.613 343.09 169.82 343.09 169.82C340.013 168.067 343.129 167.799 343.129 167.799C346.371 167.74 348.331 170.734 348.331 170.734C351.61 175.468 356.086 173.667 357.861 172.642C357.944 170.509 358.664 168.975 359.493 168.086C352.348 167.935 344.658 165.76 343.581 153.203C343.275 149.631 344.291 146.599 346.104 144.154C345.717 143.37 344.32 140.108 345.678 135.467C345.678 135.467 348.298 134.369 354.736 138.07C357.275 137.132 359.926 136.537 362.62 136.303C365.315 136.072 368.094 136.216 370.69 136.702C376.404 131.959 379.172 132.594 379.172 132.594C381.302 136.936 380.479 140.388 380.232 141.227C382.488 143.323 383.953 146.141 384.26 149.714C385.337 162.271 378.125 165.67 371.062 167.094C372.313 168.022 373.483 169.884 373.748 172.97C374.124 177.354 374.373 180.876 374.466 181.958C374.54 182.825 375.21 183.804 376.767 183.343C389.074 177.925 397.165 164.909 395.925 150.458C394.427 132.375 378.857 118.99 361.265 120.499Z" fill="white"/>
<rect x="419.686" y="103.068" width="88" height="88" rx="16" transform="rotate(-5.26112 419.686 103.068)" fill="black"/>
<g clip-path="url(#clip2_1025_5866)">
<path d="M441.928 169.003L452.077 168.18L450.078 143.533L434.698 133.836L437.226 165.006C437.422 167.413 439.529 169.198 441.928 169.003Z" fill="#4285F4"/>
<path d="M486.872 165.36L497.021 164.536C499.427 164.341 501.212 162.234 501.017 159.834L498.489 128.664L484.873 140.713" fill="#34A853"/>
<path d="M483.345 121.866L484.874 140.713L498.49 128.664L498.019 122.864C497.583 117.486 491.194 114.917 487.157 118.492" fill="#FBBC04"/>
<path d="M450.078 143.535L448.55 124.688L467.006 136.325L483.345 121.865L484.873 140.713L468.534 155.172" fill="#EA4335"/>
<path d="M434.228 128.038L434.699 133.837L450.078 143.535L448.55 124.688L444.244 121.972C439.676 119.096 433.792 122.66 434.228 128.038Z" fill="#C5221F"/>
</g>
<mask id="path-26-inside-1_1025_5866" fill="white">
<path d="M286.172 26.573C293.093 18.7752 305.357 18.6915 312.267 26.4993C314.646 29.1881 316.135 32.5483 316.527 36.1173L318.688 55.7589C318.692 55.7597 318.695 55.7608 318.699 55.7616C322.381 56.5901 326.146 58.5438 328.765 62.5495C331.167 66.2241 331.997 70.7252 332.086 75.4631C332.136 78.158 332.242 81.4697 331.704 84.2306C331.018 87.7593 329.158 91.2445 325.154 93.4186C322.06 95.0985 318.32 95.5791 314.963 95.8359C311.361 96.1115 306.657 96.1969 300.857 96.3058C295.057 96.4147 290.353 96.5058 286.743 96.3656C283.379 96.235 279.623 95.8951 276.468 94.3325C272.385 92.3102 270.396 88.8973 269.578 85.3968C268.937 82.6581 268.918 79.3447 268.867 76.6498C268.772 71.5579 269.376 66.775 271.595 62.8921C273.912 58.8368 277.405 56.7266 280.977 55.7938L281.743 37.5018C281.912 33.4704 283.493 29.5908 286.172 26.573ZM323.619 83.6166L323.701 83.3435L323.701 83.3416C323.675 83.4351 323.648 83.5268 323.619 83.6166ZM276.939 79.5125C276.94 79.5458 276.942 79.579 276.943 79.612C276.931 79.3037 276.921 78.985 276.912 78.6554L276.939 79.5125Z"/>
</mask>
<path d="M286.172 26.573C293.093 18.7752 305.357 18.6915 312.267 26.4993C314.646 29.1881 316.135 32.5483 316.527 36.1173L318.688 55.7589C318.692 55.7597 318.695 55.7608 318.699 55.7616C322.381 56.5901 326.146 58.5438 328.765 62.5495C331.167 66.2241 331.997 70.7252 332.086 75.4631C332.136 78.158 332.242 81.4697 331.704 84.2306C331.018 87.7593 329.158 91.2445 325.154 93.4186C322.06 95.0985 318.32 95.5791 314.963 95.8359C311.361 96.1115 306.657 96.1969 300.857 96.3058C295.057 96.4147 290.353 96.5058 286.743 96.3656C283.379 96.235 279.623 95.8951 276.468 94.3325C272.385 92.3102 270.396 88.8973 269.578 85.3968C268.937 82.6581 268.918 79.3447 268.867 76.6498C268.772 71.5579 269.376 66.775 271.595 62.8921C273.912 58.8368 277.405 56.7266 280.977 55.7938L281.743 37.5018C281.912 33.4704 283.493 29.5908 286.172 26.573ZM323.619 83.6166L323.701 83.3435L323.701 83.3416C323.675 83.4351 323.648 83.5268 323.619 83.6166ZM276.939 79.5125C276.94 79.5458 276.942 79.579 276.943 79.612C276.931 79.3037 276.921 78.985 276.912 78.6554L276.939 79.5125Z" fill="#C25F50"/>
<path d="M286.172 26.573L281.684 22.5902L281.684 22.5903L286.172 26.573ZM312.267 26.4993L316.76 22.5228L316.76 22.5228L312.267 26.4993ZM316.527 36.1173L310.563 36.7735L310.563 36.7735L316.527 36.1173ZM318.688 55.7589L312.724 56.4151L313.193 60.6751L317.375 61.6134L318.688 55.7589ZM318.699 55.7616L320.016 49.908L320.016 49.9079L318.699 55.7616ZM328.765 62.5495L333.787 59.2667L333.787 59.2665L328.765 62.5495ZM332.086 75.4631L326.087 75.5757L326.087 75.5757L332.086 75.4631ZM331.704 84.2306L337.594 85.3766L337.594 85.3766L331.704 84.2306ZM325.154 93.4186L328.017 98.6916L328.017 98.6915L325.154 93.4186ZM314.963 95.8359L315.421 101.818L315.421 101.818L314.963 95.8359ZM300.857 96.3058L300.745 90.3068L300.857 96.3058ZM286.743 96.3656L286.51 102.361L286.51 102.361L286.743 96.3656ZM276.468 94.3325L273.805 99.7092L273.805 99.7093L276.468 94.3325ZM269.578 85.3968L263.735 86.763L263.735 86.7631L269.578 85.3968ZM268.867 76.6498L274.866 76.5372L274.866 76.5372L268.867 76.6498ZM271.595 62.8921L266.385 59.9154L266.385 59.9155L271.595 62.8921ZM280.977 55.7938L282.493 61.5992L286.786 60.4781L286.972 56.0449L280.977 55.7938ZM281.743 37.5018L287.738 37.7529L287.738 37.7529L281.743 37.5018ZM323.619 83.6166L317.871 81.8948L329.329 85.4591L323.619 83.6166ZM323.701 83.3435L329.449 85.0654L329.717 84.1678L329.7 83.2309L323.701 83.3435ZM323.701 83.3416L329.7 83.229L317.919 81.7379L323.701 83.3416ZM276.939 79.5125L270.942 79.7002L270.943 79.7189L270.943 79.7376L276.939 79.5125ZM276.912 78.6554L282.909 78.4677L270.915 78.8194L276.912 78.6554ZM286.172 26.573L290.659 30.5559C295.23 25.4065 303.288 25.4068 307.774 30.4757L312.267 26.4993L316.76 22.5228C307.426 11.9761 290.956 12.1438 281.684 22.5902L286.172 26.573ZM312.267 26.4993L307.774 30.4757C309.331 32.2359 310.306 34.436 310.563 36.7735L316.527 36.1173L322.491 35.4612C321.963 30.6605 319.961 26.1403 316.76 22.5228L312.267 26.4993ZM316.527 36.1173L310.563 36.7735L312.724 56.4151L318.688 55.7589L324.652 55.1027L322.491 35.4611L316.527 36.1173ZM318.688 55.7589L317.375 61.6134C317.336 61.6048 317.302 61.5968 317.274 61.5899C317.246 61.583 317.221 61.5769 317.203 61.5721C317.184 61.5673 317.169 61.5634 317.16 61.5611C317.156 61.5599 317.152 61.5589 317.15 61.5583C317.148 61.5578 317.146 61.5574 317.147 61.5575C317.147 61.5575 317.147 61.5576 317.147 61.5576C317.147 61.5576 317.148 61.5577 317.148 61.5578C317.149 61.558 317.15 61.5583 317.151 61.5586C317.153 61.5592 317.157 61.5603 317.162 61.5616C317.172 61.5641 317.187 61.5682 317.206 61.5731C317.226 61.578 317.251 61.5843 317.28 61.5914C317.309 61.5984 317.343 61.6066 317.382 61.6154L318.699 55.7616L320.016 49.9079C320.054 49.9165 320.087 49.9244 320.116 49.9313C320.144 49.9381 320.168 49.9442 320.186 49.9489C320.204 49.9536 320.219 49.9574 320.228 49.9597C320.232 49.9609 320.236 49.9618 320.238 49.9623C320.239 49.9628 320.241 49.9632 320.24 49.963C320.24 49.963 320.238 49.9625 320.236 49.9619C320.233 49.9612 320.229 49.9601 320.224 49.9588C320.214 49.9562 320.199 49.952 320.179 49.9471C320.16 49.942 320.134 49.9357 320.105 49.9286C320.076 49.9215 320.041 49.9132 320.002 49.9045L318.688 55.7589ZM318.699 55.7616L317.382 61.6153C319.922 62.1869 322.17 63.4264 323.742 65.8325L328.765 62.5495L333.787 59.2665C330.123 53.6611 324.84 50.9933 320.016 49.908L318.699 55.7616ZM328.765 62.5495L323.742 65.8323C325.265 68.1624 326.008 71.3652 326.087 75.5757L332.086 75.4631L338.085 75.3505C337.986 70.0851 337.068 64.2858 333.787 59.2667L328.765 62.5495ZM332.086 75.4631L326.087 75.5757C326.142 78.5163 326.203 81.0901 325.815 83.0846L331.704 84.2306L337.594 85.3766C338.28 81.8494 338.131 77.7996 338.085 75.3505L332.086 75.4631ZM331.704 84.2306L325.815 83.0845C325.387 85.2822 324.375 87.0144 322.291 88.1457L325.154 93.4186L328.017 98.6915C333.942 95.4745 336.648 90.2365 337.594 85.3766L331.704 84.2306ZM325.154 93.4186L322.291 88.1456C320.414 89.1645 317.813 89.6003 314.505 89.8534L314.963 95.8359L315.421 101.818C318.826 101.558 323.705 101.033 328.017 98.6916L325.154 93.4186ZM314.963 95.8359L314.505 89.8534C311.117 90.1126 306.619 90.1966 300.745 90.3068L300.857 96.3058L300.97 102.305C306.696 102.197 311.605 102.11 315.421 101.818L314.963 95.8359ZM300.857 96.3058L300.745 90.3068C294.87 90.4171 290.371 90.502 286.975 90.3701L286.743 96.3656L286.51 102.361C290.334 102.51 295.244 102.412 300.97 102.305L300.857 96.3058ZM286.743 96.3656L286.975 90.3701C283.661 90.2414 281.045 89.9035 279.131 88.9557L276.468 94.3325L273.805 99.7093C278.202 101.887 283.097 102.229 286.51 102.361L286.743 96.3656ZM276.468 94.3325L279.131 88.9558C277.007 87.9036 275.93 86.2108 275.42 84.0305L269.578 85.3968L263.735 86.7631C264.863 91.5839 267.763 96.7168 273.805 99.7092L276.468 94.3325ZM269.578 85.3968L275.42 84.0305C274.957 82.052 274.922 79.4778 274.866 76.5372L268.867 76.6498L262.868 76.7624C262.914 79.2115 262.917 83.2641 263.735 86.763L269.578 85.3968ZM268.867 76.6498L274.866 76.5372C274.778 71.8491 275.381 68.3595 276.805 65.8686L271.595 62.8921L266.385 59.9155C263.372 65.1904 262.765 71.2668 262.868 76.7624L268.867 76.6498ZM271.595 62.8921L276.805 65.8688C278.186 63.4515 280.198 62.1986 282.493 61.5992L280.977 55.7938L279.461 49.9885C274.613 51.2546 269.639 54.2221 266.385 59.9154L271.595 62.8921ZM280.977 55.7938L286.972 56.0449L287.738 37.7529L281.743 37.5018L275.749 37.2507L274.982 55.5427L280.977 55.7938ZM281.743 37.5018L287.738 37.7529C287.849 35.1158 288.889 32.5508 290.659 30.5558L286.172 26.573L281.684 22.5903C278.098 26.6308 275.976 31.825 275.749 37.2507L281.743 37.5018ZM323.619 83.6166L329.367 85.3384L329.449 85.0654L323.701 83.3435L317.953 81.6217L317.871 81.8948L323.619 83.6166ZM323.701 83.3435L329.7 83.2309L329.7 83.229L323.701 83.3416L317.702 83.4542L317.702 83.4561L323.701 83.3435ZM323.701 83.3416L317.919 81.7379C317.914 81.7579 317.91 81.7701 317.908 81.7765C317.906 81.7829 317.907 81.7815 317.909 81.774L323.619 83.6166L329.329 85.4591C329.391 85.2665 329.442 85.0905 329.483 84.9453L323.701 83.3416ZM276.939 79.5125L270.943 79.7376C270.945 79.7748 270.946 79.8112 270.948 79.8464L276.943 79.612L282.938 79.3776C282.937 79.3467 282.936 79.3168 282.935 79.2873L276.939 79.5125ZM276.943 79.612L282.938 79.3776C282.928 79.1042 282.919 78.8126 282.91 78.4914L276.912 78.6554L270.915 78.8194C270.924 79.1573 270.934 79.5033 270.948 79.8464L276.943 79.612ZM276.912 78.6554L270.915 78.8432L270.942 79.7002L276.939 79.5125L282.936 79.3247L282.909 78.4677L276.912 78.6554Z" fill="black" mask="url(#path-26-inside-1_1025_5866)"/>
<path d="M330.415 64.6491C331.545 72.4492 331.711 80.3591 330.908 88.1997L330.509 92.0848C311.558 96.0296 291.961 96.3809 272.872 93.1443C271.315 84.463 270.999 75.6042 271.936 66.8339L272.273 63.6679C291.504 66.1203 310.99 65.7543 330.115 62.5821L330.415 64.6491Z" fill="#657881" stroke="black" stroke-width="8"/>
<path d="M291.517 46.3478C291.301 46.3849 291.066 46.2986 290.839 45.969C290.372 45.2908 290.241 44.4228 290.108 43.5783L290.102 43.5432C290.071 43.344 290.049 43.1445 290.035 42.9449C289.871 40.645 290.391 38.7697 292.396 36.5635C293.846 34.9676 294.814 33.8529 296.506 32.9508C296.726 32.8339 296.931 32.7632 297.116 32.7312C298.094 32.5629 298.534 33.48 297.709 34.5171C294.11 39.3428 293.28 40.182 292.444 43.9371C292.354 44.3439 292.317 44.7583 292.333 45.1712C292.348 45.5553 292.186 45.9352 291.875 46.1753C291.767 46.2597 291.645 46.3257 291.517 46.3478Z" fill="#D97667"/>
<rect x="275.16" y="11.8262" width="4.59738" height="9.19476" rx="2.29869" transform="rotate(-24.2803 275.16 11.8262)" fill="#C25F50"/>
<rect x="288.521" y="1.32031" width="4.59738" height="9.96099" rx="2.29869" transform="rotate(-6.73048 288.521 1.32031)" fill="#C25F50"/>
<rect width="4.59738" height="9.96099" rx="2.29869" transform="matrix(-0.996807 -0.0798452 -0.0798452 0.996807 307.346 1.43359)" fill="#C25F50"/>
<rect x="319.507" y="9.18164" width="4.59738" height="9.19476" rx="2.29869" transform="rotate(40.2938 319.507 9.18164)" fill="#C25F50"/>
<rect x="-2.57779" y="-1.59425" width="60" height="12" transform="matrix(0.987688 -0.156434 0.301205 0.953559 278.448 347.282)" fill="#0094AB" stroke="black" stroke-width="4"/>
<rect x="-2.57779" y="-1.59425" width="60" height="12" transform="matrix(0.987688 -0.156434 0.301205 0.953559 283.268 362.54)" fill="#9E7C00" stroke="black" stroke-width="4"/>
<rect x="-2.57779" y="-1.59425" width="60" height="12" transform="matrix(0.987688 -0.156434 0.301205 0.953559 288.087 377.796)" fill="#C25F50" stroke="black" stroke-width="4"/>
<rect x="-2.57779" y="-1.59425" width="60" height="12" transform="matrix(0.987688 -0.156434 0.301205 0.953559 292.906 393.054)" fill="#AB61A5" stroke="black" stroke-width="4"/>
<rect x="177.63" y="244.99" width="39.9896" height="39.9896" transform="rotate(-5.58727 177.63 244.99)" fill="#0094AB" stroke="black" stroke-width="8"/>
<mask id="path-39-outside-2_1025_5866" maskUnits="userSpaceOnUse" x="221.021" y="232.833" width="44.4833" height="51.6664" fill="black">
<rect fill="white" x="221.021" y="232.833" width="44.4833" height="51.6664"/>
<path d="M221.8 244.689L253.637 241.575L256.752 273.413L224.914 276.527L221.8 244.689Z"/>
</mask>
<path d="M221.8 244.689L253.637 241.575L256.752 273.413L224.914 276.527L221.8 244.689Z" fill="#9E7C00"/>
<path d="M253.637 241.575L261.599 240.796L260.821 232.834L252.859 233.613L253.637 241.575ZM256.752 273.413L257.531 281.375L265.493 280.596L264.714 272.634L256.752 273.413ZM221.8 244.689L222.579 252.651L254.416 249.537L253.637 241.575L252.859 233.613L221.021 236.727L221.8 244.689ZM253.637 241.575L245.675 242.354L248.79 274.191L256.752 273.413L264.714 272.634L261.599 240.796L253.637 241.575ZM256.752 273.413L255.973 265.451L224.135 268.565L224.914 276.527L225.693 284.489L257.531 281.375L256.752 273.413Z" fill="black" mask="url(#path-39-outside-2_1025_5866)"/>
<mask id="path-41-outside-3_1025_5866" maskUnits="userSpaceOnUse" x="260.821" y="228.938" width="44.4833" height="51.6664" fill="black">
<rect fill="white" x="260.821" y="228.938" width="44.4833" height="51.6664"/>
<path d="M261.6 240.795L293.437 237.68L296.552 269.518L264.714 272.633L261.6 240.795Z"/>
</mask>
<path d="M261.6 240.795L293.437 237.68L296.552 269.518L264.714 272.633L261.6 240.795Z" fill="#C25F50"/>
<path d="M293.437 237.68L301.399 236.901L300.62 228.939L292.658 229.718L293.437 237.68ZM296.552 269.518L297.331 277.48L305.293 276.701L304.514 268.739L296.552 269.518ZM261.6 240.795L262.379 248.757L294.216 245.642L293.437 237.68L292.658 229.718L260.821 232.833L261.6 240.795ZM293.437 237.68L285.475 238.459L288.59 270.297L296.552 269.518L304.514 268.739L301.399 236.901L293.437 237.68ZM296.552 269.518L295.773 261.556L263.935 264.671L264.714 272.633L265.493 280.595L297.331 277.48L296.552 269.518Z" fill="black" mask="url(#path-41-outside-3_1025_5866)"/>
<mask id="path-43-outside-4_1025_5866" maskUnits="userSpaceOnUse" x="300.62" y="225.046" width="44.4833" height="51.6664" fill="black">
<rect fill="white" x="300.62" y="225.046" width="44.4833" height="51.6664"/>
<path d="M301.398 236.902L333.236 233.788L336.351 265.625L304.513 268.74L301.398 236.902Z"/>
</mask>
<path d="M301.398 236.902L333.236 233.788L336.351 265.625L304.513 268.74L301.398 236.902Z" fill="#90D99B"/>
<path d="M333.236 233.788L341.198 233.009L340.419 225.047L332.457 225.826L333.236 233.788ZM336.351 265.625L337.13 273.587L345.092 272.809L344.313 264.847L336.351 265.625ZM301.398 236.902L302.177 244.864L334.015 241.75L333.236 233.788L332.457 225.826L300.62 228.94L301.398 236.902ZM333.236 233.788L325.274 234.567L328.389 266.404L336.351 265.625L344.313 264.847L341.198 233.009L333.236 233.788ZM336.351 265.625L335.572 257.663L303.734 260.778L304.513 268.74L305.292 276.702L337.13 273.587L336.351 265.625Z" fill="black" mask="url(#path-43-outside-4_1025_5866)"/>
<mask id="path-45-outside-5_1025_5866" maskUnits="userSpaceOnUse" x="340.419" y="221.151" width="44.4833" height="51.6664" fill="black">
<rect fill="white" x="340.419" y="221.151" width="44.4833" height="51.6664"/>
<path d="M341.198 233.008L373.036 229.893L376.15 261.731L344.313 264.845L341.198 233.008Z"/>
</mask>
<path d="M341.198 233.008L373.036 229.893L376.15 261.731L344.313 264.845L341.198 233.008Z" fill="#B3C050"/>
<path d="M373.036 229.893L380.998 229.114L380.219 221.152L372.257 221.931L373.036 229.893ZM376.15 261.731L376.929 269.693L384.891 268.914L384.112 260.952L376.15 261.731ZM341.198 233.008L341.977 240.97L373.815 237.855L373.036 229.893L372.257 221.931L340.419 225.046L341.198 233.008ZM373.036 229.893L365.074 230.672L368.188 262.51L376.15 261.731L384.112 260.952L380.998 229.114L373.036 229.893ZM376.15 261.731L375.372 253.769L343.534 256.883L344.313 264.845L345.092 272.807L376.929 269.693L376.15 261.731Z" fill="black" mask="url(#path-45-outside-5_1025_5866)"/>
<mask id="path-47-outside-6_1025_5866" maskUnits="userSpaceOnUse" x="380.219" y="217.259" width="44.4833" height="51.6664" fill="black">
<rect fill="white" x="380.219" y="217.259" width="44.4833" height="51.6664"/>
<path d="M380.998 229.115L412.836 226.001L415.95 257.838L384.113 260.953L380.998 229.115Z"/>
</mask>
<path d="M380.998 229.115L412.836 226.001L415.95 257.838L384.113 260.953L380.998 229.115Z" fill="#E04387" fill-opacity="0.8072"/>
<path d="M412.836 226.001L420.798 225.222L420.019 217.26L412.057 218.039L412.836 226.001ZM415.95 257.838L416.729 265.8L424.691 265.021L423.912 257.059L415.95 257.838ZM380.998 229.115L381.777 237.077L413.615 233.963L412.836 226.001L412.057 218.039L380.219 221.153L380.998 229.115ZM412.836 226.001L404.874 226.78L407.988 258.617L415.95 257.838L423.912 257.059L420.798 225.222L412.836 226.001ZM415.95 257.838L415.171 249.876L383.334 252.991L384.113 260.953L384.892 268.915L416.729 265.8L415.95 257.838Z" fill="black" mask="url(#path-47-outside-6_1025_5866)"/>
<mask id="path-49-outside-7_1025_5866" maskUnits="userSpaceOnUse" x="177.932" y="284.486" width="51.6664" height="44.4833" fill="black">
<rect fill="white" x="177.932" y="284.486" width="51.6664" height="44.4833"/>
<path d="M185.894 288.381L217.731 285.266L220.846 317.104L189.008 320.219L185.894 288.381Z"/>
</mask>
<path d="M185.894 288.381L217.731 285.266L220.846 317.104L189.008 320.219L185.894 288.381Z" fill="#AB61A5"/>
<path d="M220.846 317.104L221.625 325.066L229.587 324.287L228.808 316.325L220.846 317.104ZM189.008 320.219L181.046 320.997L181.825 328.959L189.787 328.18L189.008 320.219ZM217.731 285.266L209.769 286.045L212.884 317.883L220.846 317.104L228.808 316.325L225.693 284.487L217.731 285.266ZM220.846 317.104L220.067 309.142L188.229 312.257L189.008 320.219L189.787 328.18L221.625 325.066L220.846 317.104ZM189.008 320.219L196.97 319.44L193.856 287.602L185.894 288.381L177.932 289.16L181.046 320.997L189.008 320.219Z" fill="black" mask="url(#path-49-outside-7_1025_5866)"/>
<mask id="path-51-outside-8_1025_5866" maskUnits="userSpaceOnUse" x="225.693" y="280.594" width="43.7044" height="43.7044" fill="black">
<rect fill="white" x="225.693" y="280.594" width="43.7044" height="43.7044"/>
<path d="M225.693 284.488L257.531 281.374L260.646 313.211L228.808 316.326L225.693 284.488Z"/>
</mask>
<path d="M225.693 284.488L257.531 281.374L260.646 313.211L228.808 316.326L225.693 284.488Z" fill="#3A9555"/>
<path d="M260.646 313.211L261.424 321.173L269.386 320.394L268.608 312.432L260.646 313.211ZM257.531 281.374L249.569 282.153L252.684 313.99L260.646 313.211L268.608 312.432L265.493 280.595L257.531 281.374ZM260.646 313.211L259.867 305.249L228.029 308.364L228.808 316.326L229.587 324.288L261.424 321.173L260.646 313.211Z" fill="black" mask="url(#path-51-outside-8_1025_5866)"/>
<mask id="path-53-outside-9_1025_5866" maskUnits="userSpaceOnUse" x="265.493" y="276.699" width="43.7044" height="43.7044" fill="black">
<rect fill="white" x="265.493" y="276.699" width="43.7044" height="43.7044"/>
<path d="M265.493 280.594L297.331 277.479L300.445 309.317L268.608 312.431L265.493 280.594Z"/>
</mask>
<path d="M265.493 280.594L297.331 277.479L300.445 309.317L268.608 312.431L265.493 280.594Z" fill="#627BCE"/>
<path d="M300.445 309.317L301.224 317.279L309.186 316.5L308.407 308.538L300.445 309.317ZM297.331 277.479L289.369 278.258L292.483 310.096L300.445 309.317L308.407 308.538L305.293 276.7L297.331 277.479ZM300.445 309.317L299.666 301.355L267.829 304.469L268.608 312.431L269.387 320.393L301.224 317.279L300.445 309.317Z" fill="black" mask="url(#path-53-outside-9_1025_5866)"/>
<mask id="path-55-outside-10_1025_5866" maskUnits="userSpaceOnUse" x="305.292" y="272.807" width="43.7044" height="43.7044" fill="black">
<rect fill="white" x="305.292" y="272.807" width="43.7044" height="43.7044"/>
<path d="M305.292 276.701L337.13 273.587L340.244 305.424L308.407 308.539L305.292 276.701Z"/>
</mask>
<path d="M305.292 276.701L337.13 273.587L340.244 305.424L308.407 308.539L305.292 276.701Z" fill="#CDA4B8"/>
<path d="M340.244 305.424L341.023 313.386L348.985 312.607L348.206 304.645L340.244 305.424ZM337.13 273.587L329.168 274.365L332.282 306.203L340.244 305.424L348.206 304.645L345.092 272.808L337.13 273.587ZM340.244 305.424L339.465 297.462L307.628 300.577L308.407 308.539L309.185 316.501L341.023 313.386L340.244 305.424Z" fill="black" mask="url(#path-55-outside-10_1025_5866)"/>
<mask id="path-57-outside-11_1025_5866" maskUnits="userSpaceOnUse" x="345.092" y="268.912" width="43.7044" height="43.7044" fill="black">
<rect fill="white" x="345.092" y="268.912" width="43.7044" height="43.7044"/>
<path d="M345.092 272.807L376.929 269.692L380.044 301.53L348.206 304.644L345.092 272.807Z"/>
</mask>
<path d="M345.092 272.807L376.929 269.692L380.044 301.53L348.206 304.644L345.092 272.807Z" fill="#9AA5D6"/>
<path d="M380.044 301.53L380.823 309.492L388.785 308.713L388.006 300.751L380.044 301.53ZM376.929 269.692L368.967 270.471L372.082 302.309L380.044 301.53L388.006 300.751L384.891 268.913L376.929 269.692ZM380.044 301.53L379.265 293.568L347.427 296.682L348.206 304.644L348.985 312.606L380.823 309.492L380.044 301.53Z" fill="black" mask="url(#path-57-outside-11_1025_5866)"/>
<mask id="path-59-outside-12_1025_5866" maskUnits="userSpaceOnUse" x="384.892" y="265.02" width="43.7044" height="43.7044" fill="black">
<rect fill="white" x="384.892" y="265.02" width="43.7044" height="43.7044"/>
<path d="M384.892 268.914L416.729 265.799L419.844 297.637L388.006 300.752L384.892 268.914Z"/>
</mask>
<path d="M384.892 268.914L416.729 265.799L419.844 297.637L388.006 300.752L384.892 268.914Z" fill="#4BA829"/>
<path d="M419.844 297.637L420.623 305.599L428.585 304.82L427.806 296.858L419.844 297.637ZM416.729 265.799L408.767 266.578L411.882 298.416L419.844 297.637L427.806 296.858L424.691 265.021L416.729 265.799ZM419.844 297.637L419.065 289.675L387.227 292.79L388.006 300.752L388.785 308.714L420.623 305.599L419.844 297.637Z" fill="black" mask="url(#path-59-outside-12_1025_5866)"/>
<path d="M985.5 515C985.5 532.397 894.557 554 838.5 554C782.443 554 737 539.897 737 522.5C737 505.103 782.443 491 838.5 491C894.557 491 985.5 497.603 985.5 515Z" fill="#D9D9D9"/>
<path d="M963.05 200.144C966.891 217.549 977.456 232.668 992.35 242.268L975.322 274.104C964.184 292.104 954.666 307.399 944.387 316.804C939.313 321.446 934.268 324.439 928.991 325.661C923.794 326.865 918.019 326.432 911.271 323.633L895.072 315.724L888.396 312.464L889.351 319.831C892.538 344.466 894.141 369.423 894.141 394.427V456.845L891.536 488.391C891.318 491.032 890.865 493.559 890.213 495.938L889.371 499.008L892.173 500.518C902.078 505.853 905.64 515.362 905.641 522.602C905.641 525.935 904.216 528.2 901.449 530.002C898.449 531.956 893.939 533.274 888.269 534.058C876.89 535.63 863.04 534.832 852.039 534.832C847.178 534.832 844.2 533.925 842.347 532.774C840.577 531.676 839.49 530.144 838.798 528.108C838.07 525.969 837.807 523.344 837.772 520.262C837.756 518.741 837.794 517.181 837.839 515.566C837.883 513.977 837.935 512.313 837.935 510.7C837.935 510.469 837.945 510.234 837.965 509.996L838.049 508.985L837.641 508.057C836.812 506.171 836.221 504.015 835.956 501.663L835.953 501.637L835.95 501.611L827.92 437.898L827.237 432.489L822.282 434.764C818.363 436.562 812.942 438.111 807.548 438.729C802.049 439.358 797.205 438.947 794.067 437.441L788.594 434.814L788.341 440.881L785.927 498.791L785.923 498.875V498.958C785.923 500.762 785.725 502.496 785.363 504.123L785.038 505.59L785.758 506.908C786.383 508.052 786.718 509.296 786.718 510.7C786.718 512.313 786.769 513.977 786.813 515.566C786.859 517.182 786.897 518.74 786.88 520.262C786.846 523.344 786.582 525.97 785.854 528.109C785.162 530.145 784.075 531.676 782.306 532.774C780.452 533.925 777.475 534.832 772.614 534.832C761.613 534.832 747.763 535.63 736.385 534.058C730.714 533.274 726.204 531.956 723.204 530.002C720.437 528.2 719.012 525.935 719.012 522.602C719.012 516.847 721.28 509.628 727.17 504.259L729.209 502.4L728.196 499.834C726.899 496.548 726.003 492.881 725.626 488.945L720.789 438.401C719.047 420.2 722.009 404.018 725.988 387.44C729.938 370.984 734.979 353.864 736.88 334.642L738.282 320.457L729.704 331.841L717.658 347.827C703.271 366.92 679.241 376.116 655.783 371.508L619.231 364.326C613.22 363.145 608.094 359.245 605.354 353.765C599.826 342.708 605.682 329.347 617.559 325.918L618.061 325.773C622.919 324.371 628.128 324.84 632.657 327.089L635.808 328.653C658.432 339.886 685.077 325.819 692.312 302.387C696.1 290.118 700.885 277.685 706.644 268.168C712.353 258.731 718.378 253.213 724.445 252.229L773.354 262.48C794.425 266.897 815.894 266.851 836.954 262.348L882.028 252.708C886.747 260.757 893.783 267.449 901.512 270.61C905.851 272.385 910.543 273.094 915.168 272.114C919.838 271.125 924.113 268.479 927.652 264.114C933.311 257.136 938.173 248.411 942.67 239.209C947.145 230.052 951.447 220.013 955.757 210.667L962.077 196.964C962.142 196.823 962.207 196.705 962.269 196.604L963.05 200.144Z" fill="#FFF2EF" stroke="#5F0300" stroke-width="8"/>
<path d="M663.415 368.674L663.629 367.998C667.42 355.981 666.575 343.016 661.326 331.633L647.516 333.64C650.813 344.727 651.178 356.45 648.618 367.673L663.415 368.674Z" fill="#C15E50" stroke="#5F0300" stroke-width="8"/>
<path d="M773.783 420.832C792.672 443.882 814.131 446.43 838.163 428.476" stroke="#5F0300" stroke-width="8" stroke-miterlimit="10" stroke-linecap="round" stroke-linejoin="round"/>
<path d="M725.596 486.157C745.127 494.845 765.754 497.641 787.317 492.192" stroke="#5F0300" stroke-width="8" stroke-miterlimit="10" stroke-linecap="round" stroke-linejoin="round"/>
<path d="M837.748 493.592C856.944 496.311 875.311 494.914 892.695 490.571" stroke="#5F0300" stroke-width="8" stroke-miterlimit="10" stroke-linecap="round" stroke-linejoin="round"/>
<path d="M951.63 229.687C960.801 240.105 971.836 248.709 984.162 255.062L973.255 270.744C961.356 264.23 950.351 256.201 940.515 246.856L951.63 229.687Z" fill="#C15E50" stroke="#5F0300" stroke-width="8"/>
<path d="M967.692 181.324C968.291 179.864 969.142 178.532 970.244 178.267L970.302 178.252C972.627 177.613 974.919 179.646 975.44 182.764C975.998 186.099 977.107 189.838 978.403 193.729C978.657 194.484 979.07 195.153 979.616 195.544C979.821 195.691 980.036 195.792 980.26 195.839C980.745 195.938 981.21 195.562 981.374 194.951L990.955 159.196C991.439 157.719 991.949 156.481 992.476 155.477C994.998 150.728 1000.65 153.938 999.969 159.702C999.882 160.456 999.754 161.252 999.587 162.085L995.207 185.991C998.396 180.313 1001.46 171.906 1004.49 162.758C1004.96 161.565 1005.49 160.616 1006.09 159.883C1008.38 157.027 1012.07 159.216 1012.11 163.428C1012.12 164.114 1012.06 164.846 1011.95 165.633L1004.78 194.486C1007.42 189.365 1011.08 182.63 1013.13 176.251C1013.36 175.544 1013.73 174.958 1014.22 174.569C1016.24 172.971 1017.85 174.466 1018.17 177.595C1018.27 178.677 1018.16 179.898 1017.81 181.247C1015.58 189.718 1012.8 198.294 1009.48 206.975C1011.87 204.389 1014.26 201.641 1016.51 198.059C1016.86 197.518 1017.32 197.088 1017.85 197.015C1018.68 196.884 1019.21 197.56 1019.72 198.683C1019.95 199.33 1019.87 200.505 1019.72 201.793C1018.56 208.329 1016.47 214.338 1013.93 220.104C1013.47 221.129 1012.97 222.114 1012.39 223.019C1009.9 226.983 1007.05 230.215 1003.91 232.845C996.3 239.226 986.463 239.303 978.97 232.451C978.648 232.157 978.325 231.844 978.006 231.532C968.783 222.433 964.274 207.134 965.804 192.075C966.051 189.671 966.381 187.202 966.805 184.647C966.989 183.498 967.271 182.367 967.692 181.324" fill="#FFF2EF"/>
<path d="M967.692 181.324C968.291 179.864 969.142 178.532 970.244 178.267L970.302 178.252C972.627 177.613 974.919 179.646 975.44 182.764C975.998 186.099 977.107 189.838 978.403 193.729C978.657 194.484 979.07 195.153 979.616 195.544C979.821 195.691 980.036 195.792 980.26 195.839C980.745 195.938 981.21 195.562 981.374 194.951L990.955 159.196C991.439 157.719 991.949 156.481 992.476 155.477C994.998 150.728 1000.65 153.938 999.969 159.702C999.882 160.456 999.754 161.252 999.587 162.085L995.207 185.991C998.396 180.313 1001.46 171.906 1004.49 162.758C1004.96 161.565 1005.49 160.616 1006.09 159.883C1008.38 157.027 1012.07 159.216 1012.11 163.428C1012.12 164.114 1012.06 164.846 1011.95 165.633L1004.78 194.486C1007.42 189.365 1011.08 182.63 1013.13 176.251C1013.36 175.544 1013.73 174.958 1014.22 174.569C1016.24 172.971 1017.85 174.466 1018.17 177.595C1018.27 178.677 1018.16 179.898 1017.81 181.247C1015.58 189.718 1012.8 198.294 1009.48 206.975C1011.87 204.389 1014.26 201.641 1016.51 198.059C1016.86 197.518 1017.32 197.088 1017.85 197.015C1018.68 196.884 1019.21 197.56 1019.72 198.683C1019.95 199.33 1019.87 200.505 1019.72 201.793C1018.56 208.329 1016.47 214.338 1013.93 220.104C1013.47 221.129 1012.97 222.114 1012.39 223.019C1009.9 226.983 1007.05 230.215 1003.91 232.845C996.3 239.226 986.463 239.303 978.97 232.451C978.648 232.157 978.325 231.844 978.006 231.532C968.783 222.433 964.274 207.134 965.804 192.075C966.051 189.671 966.381 187.202 966.805 184.647C966.989 183.498 967.271 182.367 967.692 181.324" fill="#FFF2EF"/>
<path d="M992.234 237.615C989.717 237.642 987.202 237.106 984.799 235.991C983.015 235.162 981.293 234.013 979.679 232.539C979.588 232.455 979.497 232.372 979.406 232.284C979.18 232.073 978.958 231.854 978.732 231.634C969.667 222.682 965.239 207.629 966.739 192.813C966.862 191.621 967.005 190.416 967.167 189.193C967.333 187.983 967.515 186.755 967.723 185.505C967.876 184.543 968.102 183.595 968.419 182.699C968.476 182.543 968.534 182.386 968.599 182.235C968.615 182.19 968.631 182.15 968.65 182.11C968.386 183.876 968.171 185.611 967.995 187.305C966.495 202.121 970.923 217.174 979.991 226.126C980.305 226.433 980.618 226.741 980.938 227.03C984.718 230.493 989.104 232.155 993.493 232.107C997.649 232.061 1001.81 230.478 1005.45 227.422C1008.53 224.826 1011.34 221.65 1013.79 217.754C1014.35 216.86 1014.85 215.891 1015.3 214.882C1017.01 210.994 1018.51 206.994 1019.66 202.784C1019.16 205.503 1018.49 208.131 1017.7 210.689C1017.7 210.694 1017.7 210.698 1017.7 210.702C1017.69 210.72 1017.69 210.738 1017.68 210.756C1017.68 210.774 1017.67 210.792 1017.66 210.809C1017.66 210.814 1017.66 210.818 1017.66 210.823C1017.56 211.153 1017.45 211.478 1017.35 211.803C1017.35 211.808 1017.35 211.812 1017.35 211.817C1017.34 211.835 1017.33 211.852 1017.33 211.875C1017.32 211.879 1017.32 211.884 1017.32 211.888C1017.31 211.906 1017.31 211.924 1017.3 211.937C1017.3 211.95 1017.3 211.959 1017.29 211.968C1017.29 211.982 1017.28 211.995 1017.28 212.004C1017.28 212.022 1017.27 212.035 1017.27 212.049C1017.27 212.057 1017.26 212.062 1017.26 212.071C1017.25 212.089 1017.25 212.107 1017.24 212.124C1017.24 212.129 1017.24 212.133 1017.24 212.133C1016.3 214.96 1015.22 217.703 1014.04 220.39C1013.94 220.604 1013.84 220.818 1013.74 221.033C1013.37 221.81 1012.97 222.556 1012.53 223.258C1010.08 227.158 1007.27 230.338 1004.19 232.926C1000.62 235.923 996.555 237.505 992.477 237.612C992.397 237.613 992.314 237.614 992.234 237.615Z" fill="#BABBD0"/>
<path d="M965.241 178.722C965.867 177.194 966.757 175.8 967.911 175.523L967.971 175.508C970.405 174.839 972.804 176.967 973.349 180.23C973.933 183.719 975.093 187.633 976.45 191.704C976.716 192.495 977.147 193.194 977.719 193.604C977.934 193.757 978.158 193.863 978.393 193.913C978.9 194.016 979.387 193.623 979.559 192.983L989.586 155.565C990.091 154.019 990.625 152.724 991.177 151.674C993.816 146.703 999.726 150.063 999.018 156.094C998.927 156.884 998.793 157.717 998.618 158.589L994.035 183.607C997.372 177.665 1000.58 168.866 1003.74 159.293C1004.24 158.045 1004.8 157.051 1005.42 156.284C1007.82 153.295 1011.68 155.587 1011.72 159.994C1011.73 160.712 1011.67 161.478 1011.56 162.301L1004.06 192.497C1006.82 187.137 1010.64 180.089 1012.79 173.413C1013.03 172.674 1013.42 172.06 1013.93 171.653C1016.04 169.981 1017.73 171.545 1018.06 174.82C1018.17 175.953 1018.05 177.23 1017.69 178.641C1015.35 187.506 1012.44 196.481 1008.97 205.567C1011.47 202.86 1013.97 199.984 1016.33 196.231C1016.69 195.669 1017.18 195.22 1017.73 195.143C1018.6 195.006 1019.15 195.713 1019.68 196.888C1019.93 197.566 1019.85 198.795 1019.69 200.143C1018.47 206.983 1016.28 213.272 1013.63 219.306C1013.15 220.379 1012.62 221.41 1012.02 222.356C1009.41 226.505 1006.43 229.887 1003.14 232.64C995.179 239.318 984.884 239.398 977.042 232.228C976.705 231.919 976.368 231.592 976.034 231.265C966.382 221.743 961.663 205.733 963.264 189.974C963.523 187.457 963.869 184.874 964.312 182.2C964.504 180.998 964.799 179.814 965.241 178.722Z" stroke="#5F0300" stroke-width="8" stroke-miterlimit="10" stroke-linecap="round" stroke-linejoin="round"/>
<path d="M980.282 199.546C985.096 205.514 986.251 210.666 986.842 218.163C986.842 218.163 992.954 207.033 982.951 194.548L980.282 199.546Z" fill="#5F0300"/>
<path d="M729.341 235.754C778.131 253.042 831.406 253.06 880.239 235.771L882.021 252.428C832.225 271.716 777.039 271.71 727.274 252.452L729.341 235.754Z" fill="#C15E50" stroke="#5F0300" stroke-width="8"/>
<path d="M894.058 356.574L894.863 367.246L895.086 370.188L892.341 371.269L889.953 372.209C862.914 384.034 837.795 391.441 812.312 392.848C786.769 394.258 761.087 389.627 732.949 377.69L729.562 376.253L730.713 372.757L736.354 355.624L737.668 351.637L741.587 353.141C771.641 364.675 793.262 370.373 814.59 370.489C835.903 370.605 857.304 365.147 886.908 353.663L887.052 353.606L887.2 353.562L888.914 353.045L893.683 351.607L894.058 356.574Z" fill="#C15E50" stroke="#5F0300" stroke-width="8"/>
<rect x="765.051" y="348.193" width="47.6137" height="46.4449" rx="11" fill="#C15E50" stroke="#5F0300" stroke-width="10"/>
<path d="M785.813 370.819C785.813 375.858 783.054 379.939 779.653 379.939C776.25 379.939 773.493 375.858 773.493 370.819C773.493 365.785 776.25 361.7 779.653 361.7C783.054 361.7 785.813 365.785 785.813 370.819Z" fill="#D97667"/>
<path d="M779.572 380.098C777.066 380.098 774.911 377.885 773.949 374.705C773.949 374.705 773.949 374.705 773.946 374.705C773.946 374.698 773.944 374.695 773.942 374.688C773.73 373.986 773.577 373.235 773.493 372.451C774.604 374.068 776.127 375.063 777.81 375.063C781.211 375.063 783.97 370.981 783.97 365.943C783.97 365.444 783.942 364.955 783.891 364.477C785.028 366.132 785.732 368.431 785.732 370.978C785.732 372.544 785.465 374.013 784.997 375.3C783.956 378.157 781.917 380.098 779.572 380.098" fill="#5F0300"/>
<path d="M793.979 367.252H806.782V374.655H793.979V367.252Z" fill="#5F0300"/>
<path d="M704.811 117.566C712.149 117.566 716.053 123.276 717.952 128.837C719.886 134.502 720.531 141.897 720.531 149.491C720.531 157.246 719.578 164.628 717.494 170.264C715.563 175.486 711.725 181.415 704.811 181.415C701.123 181.415 697.845 180.345 695.26 178.009C692.784 175.771 691.418 172.796 690.609 169.855C689.049 164.181 689.09 156.653 689.09 149.491C689.09 141.897 689.735 134.502 691.669 128.837C693.568 123.276 697.472 117.566 704.811 117.566Z" fill="#C15E50" stroke="#5F0300" stroke-width="10"/>
<path d="M801.677 49.1553C838.494 47.8013 862.247 55.3705 878.17 68.5088C894.143 81.6888 903.044 101.128 908.745 125.267C912.267 140.177 912.635 155.794 911.098 171.345C908.848 194.101 904.868 212.755 891.024 226.029C877.176 239.309 852.354 248.205 805.754 248.216C759.15 246.616 735.462 240.175 722.655 228.89C710.081 217.809 706.909 201.107 704.771 174.511C703.363 156.987 704.291 139.302 708.056 122.245C713.744 96.4755 719.95 79.3599 732.729 68.0547C745.48 56.7739 765.729 50.4773 801.677 49.1553Z" fill="#FFF2EF" stroke="#5F0300" stroke-width="10"/>
<path d="M797.422 80.7793C821.133 80.7793 840.696 81.5837 854.553 90.6162C867.796 99.2486 877.078 116.434 877.078 153.021C877.078 190.322 871.215 207.724 859.837 216.548C854.069 221.02 846.375 223.71 835.973 225.227C825.545 226.747 812.872 227.03 797.422 227.03C781.929 227.03 769.068 226.913 758.389 225.585C747.721 224.259 739.791 221.781 733.89 217.458C722.374 209.022 716.418 191.815 717.762 153.195C719.087 115.106 728.391 97.9405 741.276 89.6377C747.891 85.3756 755.931 83.1077 765.451 81.9492C775.01 80.786 785.656 80.7793 797.422 80.7793Z" fill="#C15E50" stroke="#5F0300" stroke-width="10"/>
<path d="M913.312 116.684C920.65 116.684 924.554 122.393 926.453 127.954C928.387 133.619 929.032 141.015 929.032 148.608C929.032 156.364 928.079 163.746 925.995 169.381C924.064 174.603 920.226 180.532 913.312 180.532C909.624 180.532 906.346 179.462 903.761 177.126C901.285 174.888 899.919 171.914 899.11 168.973C897.55 163.298 897.591 155.77 897.591 148.608C897.591 141.015 898.236 133.619 900.17 127.954C902.069 122.393 905.973 116.684 913.312 116.684Z" fill="#C15E50" stroke="#5F0300" stroke-width="10"/>
<path d="M815.922 111.882C815.79 111.068 816.037 110.167 817.033 109.272C819.083 107.429 821.745 106.845 824.334 106.255L824.441 106.23C825.052 106.092 825.664 105.986 826.278 105.912C833.345 105.06 839.161 106.846 846.117 114.236C851.149 119.579 854.66 123.144 857.576 129.478C857.954 130.299 858.188 131.071 858.302 131.772C858.9 135.466 856.112 137.229 852.852 134.202C837.701 121.022 835.049 117.956 823.42 115.162C822.16 114.859 820.881 114.76 819.611 114.864C818.43 114.96 817.247 114.383 816.483 113.228C816.214 112.823 816.001 112.368 815.922 111.882Z" fill="#D97667"/>
<path d="M607.367 306.724C618.035 307.506 626.226 316.143 626.12 325.612C626.014 335.08 617.642 342.503 606.975 341.721C596.307 340.939 588.116 332.302 588.222 322.833C588.328 313.365 596.7 305.942 607.367 306.724Z" fill="#1E272B" stroke="black" stroke-width="6"/>
<path d="M636.744 316.544C647.321 324.106 636.744 338.047 636.744 338.047C628.543 348.133 613.32 348.849 602.743 341.287C592.165 333.725 594.543 331.61 602.743 321.524C610.943 311.438 626.166 308.982 636.744 316.544Z" fill="#1E272B" fill-opacity="0.2"/>
<path d="M614.772 278.807V328.065L613.091 328.889L612.551 329.152C609.787 330.504 606.584 330.637 603.718 329.519L602.359 328.988L600.45 328.243V278.807H614.772Z" fill="#657981" stroke="black" stroke-width="6"/>
<circle cx="606.918" cy="278.339" r="20.3386" fill="#C25F50" stroke="black" stroke-width="6"/>
<path d="M623.563 273.487C626.795 280.837 622.61 290.235 615.259 293.467C607.909 296.699 597.666 296.093 594.434 288.742C591.202 281.391 603.991 289.714 611.342 286.482C618.693 283.25 620.331 266.136 623.563 273.487Z" fill="#B2584A"/>
<path d="M595.135 280.624C594.846 280.696 594.519 280.6 594.178 280.17C593.476 279.287 593.211 278.111 592.946 276.968L592.935 276.921C592.872 276.651 592.822 276.38 592.782 276.108C592.329 272.976 592.845 270.36 595.341 267.15C597.145 264.827 598.346 263.209 600.55 261.813C600.835 261.632 601.106 261.516 601.355 261.455C602.663 261.131 603.352 262.344 602.338 263.842C597.944 270.79 596.904 272.018 596.149 277.237C596.068 277.802 596.059 278.373 596.123 278.936C596.182 279.46 596.001 279.996 595.604 280.354C595.465 280.48 595.307 280.582 595.135 280.624Z" fill="#D97667"/>
<defs>
<clipPath id="clip0_1025_5866">
<rect width="64" height="64" fill="white" transform="translate(122.239 142.301) rotate(-4.88715)"/>
</clipPath>
<clipPath id="clip1_1025_5866">
<rect width="64" height="64" fill="white" transform="translate(225.794 132.771) rotate(-4.9)"/>
</clipPath>
<clipPath id="clip2_1025_5866">
<rect width="64" height="48" fill="white" transform="translate(433.699 121.514) rotate(-4.63692)"/>
</clipPath>
</defs>
</svg>
