<svg width="453" height="571" viewBox="0 0 453 571" fill="none" xmlns="http://www.w3.org/2000/svg">
<path d="M187.256 450.219C183.576 451.368 180.373 451.858 177.171 452.348C176.497 449.078 175.074 445.726 175.591 442.585C175.752 441.609 183.199 440.042 183.814 440.751C185.95 443.212 186.55 446.554 187.256 450.219Z" fill="#E5975A"/>
<path d="M357.257 345.812C359.508 347.568 361.76 349.325 364.524 352.159C365.039 354.664 365.041 356.092 364.587 357.941C366.401 360.07 368.67 361.778 370.929 363.487C370.919 363.488 370.919 363.467 371.002 364.2C377.791 378.81 384.526 392.673 391.184 406.573C393.002 410.37 395.964 414.246 396.056 418.142C396.579 440.376 397.519 463.154 390.11 484.184C385.138 498.294 375.98 511.476 366.439 523.245C359.643 531.629 349.981 539.519 339.986 542.994C328.663 546.932 317.61 551.511 306.331 555.39C295.895 558.979 284.243 559.028 273.126 560.637C273.161 561.483 273.195 562.33 273.23 563.177C282.238 562.643 291.247 562.109 300.79 562.136C305.574 563.033 309.823 563.369 314.072 563.705C311.335 565.007 308.716 566.726 305.84 567.543C288.028 572.607 270.464 569.461 251.932 564.867C240.554 560.036 230.196 555.925 219.837 551.814C217.632 549.936 215.427 548.057 212.584 546.112C204.942 539.907 197.939 533.769 190.654 526.35C191.696 523.542 193.021 522.015 194.663 521.076C197.366 522.589 199.752 523.515 202.223 525.025C204.232 525.855 206.156 526.1 208.799 526.243C215.266 523.088 221.114 518.779 225.427 527.584C236.505 524.518 247.05 521.599 258.08 518.546C261.819 515.878 266.054 510.699 271.071 509.777C278.787 508.359 279.519 504.588 278.581 498.699C288.02 493.443 298.091 488.873 297.975 478.943C303.9 475.375 308.988 473.808 311.358 470.369C313.004 467.98 311.402 462.875 310.371 459.233C308.844 453.841 306.536 448.669 304.211 442.47C322.184 449.993 326.374 449.391 330.692 439.463C335.507 428.395 330.84 416.019 318.772 410.616C323.891 410.616 327.769 410.616 331.745 410.878C332.009 411.231 332.175 411.322 332.341 411.412C332.125 411.132 331.908 410.851 331.665 409.835C330.029 406.998 328.588 404.736 326.769 402.833C324.128 400.072 321.215 397.57 317.522 394.121C340.077 390.91 342.154 386.856 333.219 367.695C332.471 366.092 332.813 364.015 332.285 362.269C331.05 358.194 330.176 353.846 328.072 350.241C325.721 346.212 322.172 342.881 319.583 339.773C322.555 337.726 325.074 335.993 327.684 333.612C328.424 331.352 329.072 329.739 329.72 328.127C338.464 332.531 347.208 336.935 356.556 342.297C357.192 344.107 357.225 344.959 357.257 345.812ZM345.929 473.406C337.996 474.912 334.513 480.592 334.067 487.795C333.963 489.476 338.42 491.44 338.79 491.728C344.997 485.877 350.19 480.981 355.066 476.385C353.076 475.61 350.209 474.493 347.805 473.174L347.841 472.575C347.841 472.575 347.388 473.421 345.929 473.406ZM360.779 401.967C360.081 400.302 358.948 397.137 358.75 397.195C355.59 398.111 350.507 398.805 349.886 400.801C348.356 405.718 348.555 411.294 348.839 416.563C348.906 417.805 352.056 418.88 353.787 420.032C354.883 418.344 356.415 416.791 356.985 414.941C358.177 411.069 358.863 407.041 360.779 401.967ZM356.621 440.216C357.087 437.987 357.553 435.758 358.019 433.528C355.639 433.619 352.117 432.745 351.083 433.971C347.126 438.658 343.969 444.02 340.371 449.342C345.063 450.435 347.713 451.053 350.06 451.6C351.753 448.319 353.616 444.708 356.621 440.216ZM304.59 492.625C298.292 494.805 293.649 498.01 294.965 506.012C302.717 502.852 309.147 500.23 315.721 497.55C312.799 495.939 309.349 494.038 304.59 492.625ZM337.514 508.983C327.831 509.437 327.232 509.958 327.423 518.074C332.827 516.55 338.193 515.037 344.44 513.276C342.332 511.826 340.613 510.644 337.514 508.983Z" fill="#D68360"/>
<path d="M314.787 563.614C309.821 563.369 305.571 563.033 301.555 562.13C312.708 557.897 324.07 555.169 334.425 550.301C344.762 545.44 354.515 539.004 363.704 532.157C369.205 528.058 374.2 522.446 377.558 516.467C386.119 501.23 399.691 487.853 397.322 468.066C397.19 466.962 398.642 465.752 398.822 464.513C400.577 452.401 404.3 440.092 403.269 428.203C402.356 417.69 396.048 407.665 392.269 397.37C391.396 394.99 391.385 392.292 390.502 389.917C389.65 387.627 388.368 385.435 386.952 383.427C383.588 378.66 380.116 373.963 376.519 369.37C374.854 367.243 372.796 365.425 370.916 363.467C370.916 363.467 370.917 363.488 370.88 362.85C368.909 360.648 366.975 359.084 365.04 357.52C365.038 356.092 365.037 354.665 365.04 352.525C375.196 354.804 380.73 362.072 384.656 371.524C386.189 375.216 390.143 377.902 394.012 381.78C398.776 394.362 401.821 406.492 406.443 417.989C412.552 433.185 405.414 448.496 408.191 463.58C406.2 472.822 404.208 482.063 401.764 492.502C400.942 494.756 400.573 495.812 400.205 496.868C394.381 504.056 387.753 510.749 382.941 518.56C377.2 527.879 371.326 535.952 360.817 540.863C352.174 544.903 344.78 551.615 336.215 557.415C328.9 559.632 322.202 561.577 314.787 563.614Z" fill="#D5865A"/>
<path d="M194.344 520.487C193.02 522.014 191.695 523.541 190.343 525.769C173.241 510.777 164.69 491.037 160.731 468.389C157.068 447.439 159.822 427.114 163.359 406.691C163.941 403.33 166.447 400.347 167.626 397.034C169.521 391.709 171.05 386.253 172.762 380.037C180.255 370.922 187.157 362.011 195.321 354.466C207.128 343.554 219.329 332.943 235.254 327.936C250.276 323.213 265.057 317.703 280.155 313.259C283.423 312.297 287.626 314.264 291.342 315.125C298.412 316.763 305.532 318.281 312.459 320.41C318.118 322.149 323.525 324.704 329.381 327.512C329.071 329.738 328.423 331.35 326.983 333.455C321.786 332.005 317.525 328.988 312.94 328.368C305.728 327.394 298.806 328.38 292.011 323.122C288.403 320.329 280.862 321.729 275.299 322.575C268.293 323.639 262.671 332.134 254.257 326.437C253.766 326.105 252.406 326.852 251.551 327.293C244.122 331.123 236.56 334.731 229.351 338.942C222.986 342.66 216.71 346.679 210.977 351.291C206.225 355.113 202.221 359.899 198.089 364.443C196.171 366.552 195.154 370.626 193.017 371.21C176.049 375.847 181.974 393.719 173.939 403.397C171.898 405.855 170.05 408.652 168.862 411.596C167.118 415.919 165.988 420.498 164.714 425.001C164.11 427.135 162.793 430.848 163.472 431.294C171.88 436.806 165.418 443.223 165.114 449.294C164.907 453.422 164.831 458.086 166.499 461.672C170.419 470.107 166.16 481.559 176.188 487.756C176.996 488.255 176.094 491.031 176.686 492.46C178.433 496.683 179.779 501.417 182.674 504.737C186.779 509.445 192.127 513.069 197.088 517.279C196.417 518.063 195.381 519.275 194.344 520.487Z" fill="#D6875A"/>
<path d="M194.663 521.073C195.382 519.274 196.418 518.062 197.089 517.278C192.128 513.068 186.78 509.444 182.675 504.736C179.78 501.416 178.435 496.682 176.687 492.459C176.095 491.03 176.997 488.254 176.189 487.755C166.161 481.558 170.42 470.106 166.5 461.671C164.832 458.085 164.908 453.421 165.115 449.293C165.419 443.222 171.881 436.805 163.473 431.293C162.794 430.847 164.111 427.134 164.715 425C165.989 420.497 167.119 415.918 168.863 411.595C170.051 408.651 171.899 405.854 173.94 403.396C181.975 393.718 176.05 375.846 193.018 371.208C195.155 370.624 196.173 366.551 198.091 364.442C202.222 359.898 206.226 355.112 210.978 351.289C216.711 346.678 222.987 342.659 229.353 338.94C236.561 334.729 244.124 331.122 251.552 327.292C252.407 326.851 253.767 326.104 254.258 326.436C262.672 332.133 268.294 323.638 275.3 322.573C280.863 321.728 288.404 320.328 292.013 323.121C298.807 328.379 305.729 327.393 312.941 328.367C317.526 328.987 321.787 332.004 326.892 334.101C325.074 335.99 322.555 337.724 319.583 339.77C322.173 342.879 325.721 346.209 328.072 350.238C330.176 353.843 331.051 358.191 332.285 362.266C332.814 364.012 332.471 366.089 333.219 367.692C342.154 386.854 340.077 390.907 317.522 394.118C321.215 397.567 324.128 400.069 326.769 402.831C328.588 404.733 330.029 406.996 331.653 409.843C331.667 410.588 331.647 410.614 331.647 410.614C327.769 410.614 323.891 410.614 318.773 410.614C330.841 416.017 335.507 428.393 330.693 439.46C326.374 449.388 322.184 449.99 304.211 442.467C306.537 448.667 308.845 453.838 310.371 459.23C311.403 462.872 313.004 467.977 311.358 470.366C308.988 473.806 303.9 475.372 297.976 478.94C298.091 488.871 288.02 493.441 278.582 498.697C279.519 504.586 278.787 508.357 271.072 509.774C266.054 510.696 261.819 515.876 258.08 518.544C247.05 521.597 236.505 524.516 225.428 527.582C221.114 518.776 215.266 523.086 208.683 525.626C205.944 524.889 204.041 524.663 202.138 524.438C199.752 523.512 197.366 522.586 194.663 521.073ZM256.593 462.735C256.152 464.927 254.895 467.363 255.461 469.254C256.301 472.062 258.431 474.485 260.011 477.072C262.028 475.049 264.365 473.249 265.98 470.944C267.926 468.168 269.259 464.961 271.17 461.349C273.925 463.36 275.77 464.706 277.615 466.052C278.462 465.36 279.31 464.669 280.157 463.977C277.446 460.22 274.134 453.025 272.14 453.373C266.866 454.295 262.162 458.483 256.593 462.735ZM282.948 399.769C288.864 405.533 295.05 404.852 301.221 397.757C306.74 391.412 304.562 383.419 295.531 376.869C297.144 389.584 295.641 392.241 282.948 399.769ZM266.01 486.787C274.597 490.793 282.179 488.769 286.435 481.336C290.52 474.2 289.165 463.569 282.48 458.437C284.802 472.452 279.278 481.302 266.01 486.787ZM274.836 391.528C280.904 394.804 280.492 389.02 282.666 386.301C284.651 383.819 287.76 382.236 292.065 378.975C291.25 377.968 289.129 372.923 286.059 372.257C283.141 371.624 277.932 374.765 276.098 377.717C273.997 381.099 274.506 386.101 274.836 391.528ZM310.378 436.095C311.819 438.15 313.259 440.204 314.956 442.624C318.866 436.18 321.914 431.157 324.963 426.133C326.273 426.172 327.583 426.21 328.893 426.248C326.481 423.789 323.922 419.207 321.692 419.362C318.222 419.602 314.248 422.466 311.876 425.358C310.137 427.478 310.623 431.425 310.378 436.095ZM295.996 429.148C294.262 426.317 292.599 423.434 290.663 420.748C290.499 420.521 287.761 421.347 287.471 422.142C285.244 428.233 283.327 434.439 281.155 441.097C290.415 443.002 294.005 438.064 295.996 429.148ZM240.634 385.437C237.822 386.525 235.01 387.613 231.612 388.928C239.003 394.065 244.544 393.384 249.966 387.217C255.057 381.427 253.871 375.922 250.151 370.05C247.011 375.706 244.496 380.237 240.634 385.437ZM243.468 416.793C238.386 408.883 232.945 413.082 229.176 417.422C225.164 422.04 224.815 427.747 228.814 430.675C234.878 426.807 239.64 423.836 244.278 420.683C244.647 420.432 244.16 418.922 243.468 416.793ZM326.4 369.503C323.068 373.227 319.052 376.582 316.744 380.859C315.822 382.566 318.673 386.308 319.8 389.11C324.679 383.697 328.508 379.449 333.089 374.366C331.938 373.357 329.883 371.557 326.4 369.503ZM200.554 482.358C206.4 488.705 210.351 482.838 214.155 479.792C219.067 475.857 219.23 470.887 215.181 465.385C210.046 470.886 205.35 475.916 200.554 482.358ZM246.893 491.074C246.264 489.636 245.634 488.197 245.293 487.418C239.836 492.171 234.549 496.777 229.52 501.157C238.797 504.363 242.484 502.626 246.893 491.074ZM186.803 448.889C185.893 446.048 185.432 442.89 183.791 440.565C183.319 439.895 177.599 441.376 177.476 442.298C177.079 445.265 178.171 448.432 178.689 451.522C181.149 451.059 183.608 450.596 186.803 448.889ZM230.063 377.44C235.787 381.353 239.541 378.7 242.607 367.941C235.78 366.978 231.447 369.111 230.063 377.44ZM210.121 430.183C208.134 435.135 206.146 440.086 204.233 444.854C212.834 445.02 218.505 437.057 214.305 429.567C213.877 428.804 211.709 429.016 210.121 430.183ZM196.186 470.077C197.688 470.112 199.827 470.796 200.573 470.062C202.976 467.699 204.866 464.814 208.202 460.524C205.425 459.731 200.751 457.514 200.094 458.372C197.886 461.257 197.109 465.236 196.186 470.077ZM293.059 347.666C295.469 345.977 297.879 344.288 300.288 342.6C300.169 341.512 300.051 340.425 299.932 339.337C296.083 338.75 292.234 338.162 288.386 337.574C289.465 340.921 290.544 344.269 293.059 347.666ZM251.784 356.598C262.833 357.216 267.386 350.77 263.664 343.23C259.663 346.157 255.381 349.161 251.295 352.411C250.653 352.921 250.902 354.55 251.784 356.598ZM232.67 489.443C233.439 488.898 234.293 488.44 234.96 487.791C236.358 486.431 237.657 484.97 238.997 483.55C236.466 482.891 233.084 480.914 231.595 481.873C229.152 483.447 227.938 486.928 226.205 489.605C228.103 489.898 230.001 490.191 232.67 489.443ZM222.162 398.04C220.958 397.657 218.732 396.861 218.696 396.95C216.768 401.716 215.025 406.557 212.97 412.195C219.995 409.995 225.208 407.543 222.162 398.04ZM219.683 371.189C218.688 370.488 217.693 369.788 216.698 369.087C213.497 373.948 210.297 378.809 206.599 384.426C215.348 384.39 218.278 379.302 219.683 371.189Z" fill="#F9AA6D"/>
<path d="M370.999 364.197C372.795 365.422 374.854 367.24 376.519 369.367C380.116 373.96 383.588 378.657 386.951 383.424C388.368 385.432 389.65 387.624 390.501 389.914C391.384 392.289 391.395 394.987 392.269 397.366C396.047 407.661 402.356 417.687 403.268 428.2C404.3 440.089 400.577 452.398 398.821 464.51C398.642 465.749 397.189 466.959 397.322 468.063C399.691 487.85 386.118 501.227 377.558 516.464C374.199 522.443 369.205 528.055 363.703 532.154C354.515 539.001 344.762 545.437 334.424 550.298C324.069 555.166 312.707 557.894 301.019 561.566C291.243 562.106 282.235 562.64 273.227 563.174C273.192 562.327 273.158 561.48 273.123 560.633C284.24 559.025 295.892 558.976 306.328 555.387C317.607 551.507 328.66 546.929 339.983 542.991C349.978 539.516 359.64 531.626 366.436 523.242C375.976 511.473 385.135 498.291 390.107 484.181C397.516 463.151 396.576 440.373 396.053 418.139C395.961 414.243 392.999 410.367 391.18 406.57C384.523 392.67 377.788 378.807 370.999 364.197Z" fill="#F4A478"/>
<path d="M360.267 402.524C358.862 407.042 358.176 411.07 356.983 414.942C356.414 416.792 354.882 418.346 353.786 420.034C352.054 418.882 348.905 417.806 348.838 416.564C348.554 411.295 348.355 405.719 349.884 400.803C350.506 398.806 355.589 398.113 358.748 397.196C358.947 397.139 360.08 400.303 360.267 402.524Z" fill="#EF9E70"/>
<path d="M347.344 473.375C350.21 474.492 353.077 475.608 355.068 476.384C350.192 480.98 344.998 485.876 338.791 491.726C338.422 491.439 333.964 489.475 334.068 487.794C334.515 480.591 337.997 474.911 346.65 473.399C347.37 473.394 347.344 473.375 347.344 473.375Z" fill="#EF9E70"/>
<path d="M356.046 440.655C353.612 444.706 351.749 448.317 350.056 451.598C347.709 451.051 345.059 450.433 340.367 449.34C343.965 444.018 347.122 438.656 351.079 433.969C352.114 432.743 355.635 433.617 358.015 433.526C357.549 435.756 357.083 437.985 356.046 440.655Z" fill="#EF9E70"/>
<path d="M305.243 492.381C309.348 494.038 312.797 495.94 315.719 497.551C309.145 500.231 302.716 502.852 294.963 506.013C293.648 498.01 298.29 494.805 305.243 492.381Z" fill="#EF9E70"/>
<path d="M338.204 509.221C340.613 510.642 342.332 511.824 344.44 513.274C338.193 515.035 332.827 516.548 327.422 518.072C327.232 509.956 327.831 509.435 338.204 509.221Z" fill="#EF9E70"/>
<path d="M364.586 357.941C366.976 359.085 368.91 360.649 370.891 362.85C368.669 361.779 366.399 360.07 364.586 357.941Z" fill="#F4A478"/>
<path d="M202.223 525.024C204.04 524.665 205.944 524.89 207.963 525.73C206.155 526.099 204.232 525.854 202.223 525.024Z" fill="#D6875A"/>
<path d="M331.677 410.58C331.906 410.851 332.122 411.131 332.339 411.412C332.173 411.321 332.007 411.231 331.742 410.878C331.644 410.616 331.664 410.59 331.677 410.58Z" fill="#F9AA6D"/>
<path d="M347.377 473.408C347.387 473.42 347.84 472.574 347.84 472.574C347.84 472.574 347.804 473.174 347.573 473.275C347.341 473.376 347.367 473.395 347.377 473.408Z" fill="#EF9E70"/>
<path d="M256.912 462.053C262.161 458.483 266.865 454.295 272.139 453.374C274.133 453.025 277.446 460.221 280.157 463.977C279.309 464.669 278.462 465.361 277.614 466.052C275.769 464.706 273.925 463.36 271.17 461.349C269.258 464.961 267.926 468.168 265.98 470.944C264.365 473.249 262.028 475.049 260.011 477.072C258.43 474.485 256.3 472.062 255.46 469.254C254.895 467.363 256.151 464.927 256.912 462.053Z" fill="#D8875D"/>
<path d="M283.141 399.1C295.642 392.243 297.145 389.587 295.531 376.871C304.563 383.422 306.74 391.415 301.222 397.759C295.05 404.854 288.865 405.535 283.141 399.1Z" fill="#DA8A5A"/>
<path d="M266.389 486.237C279.278 481.304 284.802 472.454 282.48 458.439C289.165 463.572 290.52 474.202 286.435 481.338C282.179 488.771 274.597 490.795 266.389 486.237Z" fill="#D98956"/>
<path d="M274.357 390.968C274.505 386.106 273.996 381.103 276.096 377.722C277.93 374.77 283.139 371.629 286.057 372.262C289.128 372.927 291.249 377.973 292.064 378.979C287.758 382.24 284.65 383.824 282.665 386.306C280.491 389.025 280.903 394.809 274.357 390.968Z" fill="#D98956"/>
<path d="M310.246 435.328C310.621 431.426 310.135 427.48 311.875 425.359C314.246 422.468 318.22 419.604 321.69 419.363C323.92 419.209 326.479 423.791 328.891 426.249C327.581 426.211 326.271 426.173 324.961 426.135C321.912 431.158 318.864 436.182 314.954 442.625C313.257 440.206 311.817 438.151 310.246 435.328Z" fill="#D6855A"/>
<path d="M295.913 429.9C294.004 438.067 290.414 443.004 281.154 441.099C283.327 434.441 285.243 428.236 287.47 422.145C287.761 421.35 290.498 420.524 290.662 420.751C292.599 423.437 294.261 426.32 295.913 429.9Z" fill="#DA8A5A"/>
<path d="M241.305 385.103C244.493 380.238 247.008 375.707 250.148 370.051C253.869 375.923 255.054 381.428 249.964 387.218C244.542 393.385 239.001 394.066 231.609 388.929C235.007 387.614 237.82 386.526 241.305 385.103Z" fill="#DC8C55"/>
<path d="M243.767 417.397C244.158 418.924 244.644 420.433 244.275 420.684C239.637 423.837 234.875 426.809 228.811 430.677C224.812 427.749 225.162 422.042 229.173 417.423C232.942 413.084 238.383 408.885 243.767 417.397Z" fill="#D98959"/>
<path d="M327.114 369.633C329.883 371.56 331.937 373.36 333.089 374.369C328.507 379.452 324.678 383.7 319.799 389.113C318.672 386.311 315.822 382.569 316.743 380.862C319.051 376.585 323.068 373.23 327.114 369.633Z" fill="#D98959"/>
<path d="M200.605 481.653C205.351 475.917 210.047 470.887 215.182 465.387C219.231 470.888 219.069 475.858 214.156 479.793C210.353 482.839 206.402 488.707 200.605 481.653Z" fill="#DA8A5A"/>
<path d="M246.924 491.75C242.484 502.628 238.797 504.365 229.52 501.159C234.549 496.779 239.836 492.173 245.293 487.42C245.634 488.199 246.263 489.638 246.924 491.75Z" fill="#DC8C55"/>
<path d="M229.98 376.727C231.448 369.111 235.781 366.978 242.608 367.941C239.541 378.701 235.788 381.354 229.98 376.727Z" fill="#D88856"/>
<path d="M210.233 429.481C211.707 429.018 213.874 428.806 214.302 429.57C218.502 437.06 212.832 445.022 204.23 444.857C206.144 440.089 208.131 435.137 210.233 429.481Z" fill="#DA8A54"/>
<path d="M195.982 469.438C197.106 465.238 197.883 461.258 200.091 458.374C200.748 457.516 205.422 459.733 208.199 460.525C204.863 464.815 202.973 467.701 200.57 470.064C199.824 470.797 197.685 470.113 195.982 469.438Z" fill="#DA8A54"/>
<path d="M292.341 347.644C290.544 344.271 289.464 340.924 288.385 337.576C292.234 338.164 296.082 338.752 299.931 339.34C300.05 340.427 300.169 341.515 300.287 342.602C297.878 344.291 295.468 345.98 292.341 347.644Z" fill="#E5975A"/>
<path d="M251.261 356.13C250.902 354.55 250.653 352.921 251.295 352.411C255.381 349.161 259.663 346.157 263.664 343.23C267.386 350.77 262.833 357.216 251.261 356.13Z" fill="#DC8C55"/>
<path d="M232.283 489.966C229.999 490.194 228.101 489.9 226.203 489.607C227.936 486.93 229.15 483.449 231.593 481.875C233.082 480.916 236.463 482.894 238.995 483.552C237.655 484.972 236.355 486.433 234.958 487.793C234.29 488.442 233.437 488.9 232.283 489.966Z" fill="#D88856"/>
<path d="M222.484 398.657C225.205 407.545 219.992 409.997 212.967 412.197C215.022 406.559 216.765 401.718 218.693 396.952C218.729 396.863 220.955 397.659 222.484 398.657Z" fill="#DC8C55"/>
<path d="M219.704 371.885C218.275 379.305 215.345 384.393 206.596 384.429C210.294 378.812 213.494 373.951 216.695 369.09C217.69 369.791 218.685 370.491 219.704 371.885Z" fill="#DC8C55"/>
<mask id="path-35-inside-1_975_147" fill="white">
<path d="M369.811 132.477C399.658 189.269 406.219 255.453 388.102 317L379.399 318.283C342.191 323.77 304.473 320.87 268.918 310.091V375C268.918 376.105 268.023 377 266.918 377H223.014L132.008 380V336.207C132.008 309.303 153.297 287.222 180.183 286.24L217.93 284.861L221.047 268.133C223.455 255.202 225.003 242.147 225.696 229.053L193.008 270.499L191.385 266.847C187.407 257.896 179.177 251.56 169.508 250L170.649 244.229C177.252 210.851 195.319 180.907 221.617 159.519L217.352 127.531L220.809 128.428C267.189 140.453 316.435 133.839 357.998 110L369.811 132.477Z"/>
</mask>
<path d="M369.811 132.477C399.658 189.269 406.219 255.453 388.102 317L379.399 318.283C342.191 323.77 304.473 320.87 268.918 310.091V375C268.918 376.105 268.023 377 266.918 377H223.014L132.008 380V336.207C132.008 309.303 153.297 287.222 180.183 286.24L217.93 284.861L221.047 268.133C223.455 255.202 225.003 242.147 225.696 229.053L193.008 270.499L191.385 266.847C187.407 257.896 179.177 251.56 169.508 250L170.649 244.229C177.252 210.851 195.319 180.907 221.617 159.519L217.352 127.531L220.809 128.428C267.189 140.453 316.435 133.839 357.998 110L369.811 132.477Z" fill="#FFF2EF"/>
<path d="M369.811 132.477L362.729 136.198L362.729 136.198L369.811 132.477ZM388.102 317L389.269 324.914L394.331 324.168L395.776 319.259L388.102 317ZM379.399 318.283L378.232 310.369L378.232 310.369L379.399 318.283ZM268.918 310.091L271.239 302.435L260.918 299.306V310.091H268.918ZM223.014 377V369H222.882L222.75 369.004L223.014 377ZM132.008 380H124.008V388.268L132.271 387.996L132.008 380ZM132.008 336.207L124.008 336.207V336.207H132.008ZM180.183 286.24L180.475 294.235L180.475 294.235L180.183 286.24ZM217.93 284.861L218.222 292.856L224.621 292.622L225.794 286.327L217.93 284.861ZM221.047 268.133L228.912 269.598L228.912 269.598L221.047 268.133ZM225.696 229.053L233.685 229.476L235.017 204.317L219.415 224.099L225.696 229.053ZM193.008 270.499L185.697 273.748L191.08 285.861L199.289 275.453L193.008 270.499ZM191.385 266.847L198.695 263.598L198.695 263.597L191.385 266.847ZM169.508 250L161.66 248.448L160.052 256.578L168.234 257.898L169.508 250ZM170.649 244.229L162.801 242.676L162.801 242.676L170.649 244.229ZM221.617 159.519L226.665 165.725L230.139 162.9L229.547 158.461L221.617 159.519ZM217.352 127.531L219.36 119.787L207.85 116.803L209.422 128.589L217.352 127.531ZM220.809 128.428L218.8 136.172L218.801 136.172L220.809 128.428ZM357.998 110L365.08 106.278L361.218 98.9307L354.018 103.06L357.998 110ZM369.811 132.477L362.729 136.198C391.609 191.15 397.957 255.188 380.427 314.741L388.102 317L395.776 319.259C414.481 255.717 407.707 187.388 376.892 128.755L369.811 132.477ZM388.102 317L386.935 309.086L378.232 310.369L379.399 318.283L380.566 326.198L389.269 324.914L388.102 317ZM379.399 318.283L378.232 310.369C342.199 315.682 305.672 312.874 271.239 302.435L268.918 310.091L266.597 317.747C303.274 328.866 342.182 331.858 380.566 326.198L379.399 318.283ZM268.918 310.091H260.918V375H268.918H276.918V310.091H268.918ZM268.918 375H260.918C260.918 371.686 263.604 369 266.918 369V377V385C272.441 385 276.918 380.523 276.918 375H268.918ZM266.918 377V369H223.014V377V385H266.918V377ZM223.014 377L222.75 369.004L131.744 372.004L132.008 380L132.271 387.996L223.277 384.996L223.014 377ZM132.008 380H140.008V336.207H132.008H124.008V380H132.008ZM132.008 336.207L140.008 336.207C140.008 313.608 157.891 295.06 180.475 294.235L180.183 286.24L179.891 278.246C148.703 279.385 124.008 304.999 124.008 336.207L132.008 336.207ZM180.183 286.24L180.475 294.235L218.222 292.856L217.93 284.861L217.638 276.867L179.891 278.246L180.183 286.24ZM217.93 284.861L225.794 286.327L228.912 269.598L221.047 268.133L213.182 266.667L210.065 283.396L217.93 284.861ZM221.047 268.133L228.912 269.598C231.385 256.321 232.974 242.918 233.685 229.476L225.696 229.053L217.707 228.63C217.033 241.377 215.526 254.084 213.182 266.668L221.047 268.133ZM225.696 229.053L219.415 224.099L186.726 265.545L193.008 270.499L199.289 275.453L231.978 234.007L225.696 229.053ZM193.008 270.499L200.318 267.25L198.695 263.598L191.385 266.847L184.074 270.095L185.697 273.748L193.008 270.499ZM191.385 266.847L198.695 263.597C193.619 252.177 183.119 244.092 170.782 242.102L169.508 250L168.234 257.898C175.236 259.027 181.194 263.616 184.074 270.096L191.385 266.847ZM169.508 250L177.356 251.552L178.497 245.781L170.649 244.229L162.801 242.676L161.66 248.448L169.508 250ZM170.649 244.229L178.497 245.781C184.737 214.238 201.812 185.939 226.665 165.725L221.617 159.519L216.569 153.312C188.827 175.876 169.767 207.465 162.801 242.676L170.649 244.229ZM221.617 159.519L229.547 158.461L225.281 126.474L217.352 127.531L209.422 128.589L213.687 160.576L221.617 159.519ZM217.352 127.531L215.343 135.275L218.8 136.172L220.809 128.428L222.817 120.684L219.36 119.787L217.352 127.531ZM220.809 128.428L218.801 136.172C267.206 148.722 318.601 141.819 361.978 116.94L357.998 110L354.018 103.06C314.269 125.858 267.172 132.185 222.816 120.684L220.809 128.428ZM357.998 110L350.916 113.722L362.729 136.198L369.811 132.477L376.892 128.755L365.08 106.278L357.998 110Z" fill="#5F0300" mask="url(#path-35-inside-1_975_147)"/>
<mask id="path-37-inside-2_975_147" fill="white">
<path d="M393.512 291.582C391.563 342.516 348.779 382.277 297.839 380.495L230.931 378.155L227.496 370.839C210.306 334.216 240.106 292.98 280.273 297.807C300.691 300.26 321.329 300.26 341.746 297.806L393.512 291.582Z"/>
</mask>
<path d="M393.512 291.582C391.563 342.516 348.779 382.277 297.839 380.495L230.931 378.155L227.496 370.839C210.306 334.216 240.106 292.98 280.273 297.807C300.691 300.26 321.329 300.26 341.746 297.806L393.512 291.582Z" fill="#FFF2EF"/>
<path d="M393.512 291.582L401.506 291.888L401.864 282.52L392.557 283.639L393.512 291.582ZM297.839 380.495L298.118 372.5L298.118 372.5L297.839 380.495ZM230.931 378.155L223.689 381.555L225.766 385.98L230.651 386.15L230.931 378.155ZM227.496 370.839L220.254 374.238L220.254 374.238L227.496 370.839ZM280.273 297.807L281.228 289.864L281.228 289.864L280.273 297.807ZM341.746 297.806L342.701 305.748L342.701 305.748L341.746 297.806ZM393.512 291.582L385.517 291.276C383.737 337.806 344.653 374.128 298.118 372.5L297.839 380.495L297.559 388.49C352.905 390.426 399.388 347.227 401.506 291.888L393.512 291.582ZM297.839 380.495L298.118 372.5L231.21 370.16L230.931 378.155L230.651 386.15L297.559 388.49L297.839 380.495ZM230.931 378.155L238.172 374.756L234.738 367.439L227.496 370.839L220.254 374.238L223.689 381.555L230.931 378.155ZM227.496 370.839L234.738 367.44C220.217 336.505 245.389 301.672 279.319 305.749L280.273 297.807L281.228 289.864C234.822 284.287 200.394 331.928 220.254 374.238L227.496 370.839ZM280.273 297.807L279.319 305.749C300.37 308.279 321.649 308.279 342.701 305.748L341.746 297.806L340.791 289.863C321.008 292.241 301.011 292.241 281.228 289.864L280.273 297.807ZM341.746 297.806L342.701 305.748L394.466 299.525L393.512 291.582L392.557 283.639L340.791 289.863L341.746 297.806Z" fill="#5F0300" mask="url(#path-37-inside-2_975_147)"/>
<path d="M286.733 252.275C313.398 258.043 340.717 260.196 367.956 258.674L392.33 257.312C391.124 263.637 388.916 269.723 385.792 275.342L333.007 275.078C301.651 274.92 270.519 269.782 240.775 259.854L231.281 256.684L232.452 240.534L286.733 252.275Z" fill="#C15E50" stroke="#5F0300" stroke-width="8"/>
<rect x="5.08515" y="5.0686" width="48.5922" height="30.3147" rx="11" transform="matrix(0.999904 0.0138664 0.0171257 0.999853 252.925 236.932)" fill="#C15E50" stroke="#5F0300" stroke-width="10"/>
<path d="M279.549 257.093C279.611 260.691 276.855 263.566 273.397 263.519C269.936 263.471 267.083 260.517 267.021 256.919C266.96 253.323 269.713 250.445 273.174 250.493C276.632 250.541 279.488 253.497 279.549 257.093Z" fill="#D97667"/>
<path d="M273.316 263.631C270.768 263.595 268.55 261.985 267.532 259.7C267.532 259.7 267.532 259.7 267.53 259.7C267.53 259.695 267.527 259.693 267.525 259.688C267.301 259.183 267.136 258.646 267.041 258.084C268.191 259.255 269.751 259.986 271.463 260.01C274.921 260.058 277.677 257.182 277.615 253.584C277.609 253.228 277.575 252.879 277.517 252.536C278.693 253.734 279.438 255.386 279.469 257.205C279.488 258.323 279.234 259.369 278.775 260.281C277.751 262.306 275.701 263.664 273.316 263.631" fill="#5F0300"/>
<path d="M287.807 254.662L300.826 254.843L300.916 260.129L287.897 259.949L287.807 254.662Z" fill="#5F0300"/>
<path d="M350.918 143.942C367.979 134.481 389.981 139.668 398.631 156.741C407.605 174.456 413.494 192.933 409.422 208.704C407.954 214.388 404.173 218.688 398.879 221.926C393.538 225.192 386.836 227.254 380.065 228.393C346.357 233.261 313.149 239.744 280.625 234.926L270.535 203.995C306.222 196.406 332.387 188.959 357.702 187.909C363.242 187.679 367.167 181.968 364.891 176.642L350.918 143.942Z" fill="#FFF2EF" stroke="#5F0300" stroke-width="8"/>
<path d="M366.256 137.904C327.102 165.31 277.538 173.449 231.589 159.883L227.383 158.641L227.383 144.383C272.726 155.246 320.455 149.514 361.923 128.241L366.256 137.904Z" fill="#C15E50" stroke="#5F0300" stroke-width="8"/>
<path d="M203.752 60.2148C209.77 60.2149 213.01 64.6832 214.524 68.8398C216.03 72.9716 216.496 78.2321 216.496 83.4365C216.496 88.8135 215.794 94.0588 214.177 98.1562C212.67 101.973 209.51 106.657 203.752 106.657C200.891 106.657 198.215 105.88 196.044 104.041C193.951 102.269 192.825 99.9285 192.179 97.7285C190.961 93.5815 191.008 88.1788 191.008 83.4365C191.008 78.2321 191.474 72.9716 192.979 68.8398C194.494 64.6831 197.734 60.2148 203.752 60.2148Z" fill="#C15E50" stroke="#5F0300" stroke-width="10"/>
<path d="M285.999 5.07324C312.756 4.27534 330.529 10.0223 342.762 19.1084C355.021 28.2144 362.336 41.1321 367.287 55.8818C373.331 73.8866 374.569 93.348 366.449 109.227C354.892 131.827 330.031 149.038 285.851 149.038C264.883 149.038 251.241 147.885 241.908 145.414C219.22 139.408 206.978 114.622 206.573 85.9658C206.17 57.43 217.691 28.3643 238.681 16.0029C249.28 9.76107 264.132 5.72535 285.999 5.07324Z" fill="#FFF2EF" stroke="#5F0300" stroke-width="10"/>
<path d="M375.156 60.5469C377.929 60.5469 380.438 61.4103 382.509 63.0605C384.502 64.6492 385.836 66.7606 386.742 68.9121C388.513 73.1183 389.051 78.4487 389.051 83.6602C389.051 89.0719 388.235 94.3841 386.338 98.5439C384.461 102.658 380.889 106.774 375.156 106.774C372.167 106.774 369.379 106.084 367.059 104.384C364.747 102.69 363.418 100.372 362.639 98.0752C361.201 93.8363 361.262 88.335 361.262 83.6602C361.262 78.4487 361.799 73.1182 363.57 68.9121C364.476 66.7607 365.81 64.6492 367.804 63.0605C369.874 61.4103 372.383 60.5469 375.156 60.5469Z" fill="#C15E50" stroke="#5F0300" stroke-width="10"/>
<path d="M276.352 38.3281C292.262 38.3281 304.848 38.8732 313.644 44.2402C321.727 49.173 327.774 59.0844 327.774 81.5195C327.774 104.67 323.868 115.326 316.895 120.832C313.322 123.653 308.469 125.52 301.707 126.644C294.921 127.771 286.6 128.09 276.352 128.09C266.074 128.09 257.362 127.873 250.023 126.855C242.687 125.838 237.132 124.067 232.96 121.237C225.071 115.888 220.274 105.367 221.153 81.7051C222.014 58.5336 228.872 48.572 237.654 43.7314C242.311 41.165 247.963 39.7683 254.59 39.0518C261.236 38.3332 268.499 38.3281 276.352 38.3281Z" fill="#C15E50" stroke="#5F0300" stroke-width="10"/>
<path d="M281.214 62.0044C281.104 61.4564 281.309 60.8506 282.135 60.2481C283.836 59.0087 286.044 58.6156 288.193 58.2187L288.282 58.202C288.789 58.109 289.297 58.0378 289.806 57.988C295.669 57.4149 300.495 58.6162 306.266 63.5876C310.441 67.1822 313.354 69.581 315.773 73.8421C316.086 74.3947 316.281 74.9137 316.375 75.3856C316.871 77.8706 314.559 79.0566 311.854 77.0204C299.283 68.1532 297.083 66.0902 287.434 64.2106C286.389 64.0073 285.328 63.9404 284.275 64.01C283.295 64.0748 282.313 63.6864 281.679 62.9094C281.456 62.6371 281.279 62.331 281.214 62.0044Z" fill="#F38D7D"/>
<path d="M243.008 312C248.045 312 251.404 312.926 253.697 314.276C255.929 315.59 257.472 317.494 258.572 320.1C259.707 322.788 260.348 326.181 260.677 330.306C261.005 334.423 261.008 338.99 261.008 344C261.008 353.763 259.816 361.98 256.916 367.629C255.5 370.387 253.73 372.427 251.576 373.794C249.435 375.152 246.672 376 243.008 376C237.002 376 232.72 373.015 229.719 367.534C226.603 361.844 225.008 353.602 225.008 344C225.008 334.181 226.064 325.976 228.894 320.339C230.269 317.598 232.011 315.575 234.174 314.216C236.331 312.86 239.169 312 243.008 312Z" fill="#C15E50" stroke="#5F0300" stroke-width="8"/>
<path d="M137.614 309.344C142.745 308.554 146.063 309.209 148.276 310.428C150.459 311.629 152.105 313.674 153.322 316.763C154.561 319.907 155.261 323.906 155.626 328.603C155.989 333.279 156.006 338.383 156.006 343.695C156.006 354.1 154.759 362.905 151.694 368.979C150.195 371.951 148.318 374.155 146.034 375.63C143.766 377.094 140.852 378 137.006 378C131.608 378 126.971 374.631 123.472 368.224C119.991 361.85 118.033 353.049 118.007 343.88C118.815 335.051 120.657 326.718 123.923 320.418C127.166 314.162 131.59 310.271 137.614 309.344Z" fill="#C15E50" stroke="#5F0300" stroke-width="8"/>
<path d="M27.1855 325.47L410.178 330.484C414.116 330.535 415.94 327.524 414.247 323.751L410.22 314.773C408.529 311.004 403.966 307.909 400.029 307.858L17.0359 302.844C13.0979 302.793 11.2746 305.804 12.9654 309.573L16.9928 318.551C18.6852 322.324 23.2475 325.419 27.1855 325.47Z" fill="#FCA17D"/>
<path d="M27.1853 325.47L25.9683 322.757C25.3675 322.749 24.759 322.63 24.1525 322.414C23.2471 322.096 22.3485 321.559 21.5911 320.898C20.8305 320.23 20.2157 319.453 19.8268 318.588L15.7994 309.61C15.5417 309.035 15.423 308.505 15.4189 308.016C15.4133 307.286 15.6781 306.66 16.1655 306.224C16.6568 305.792 17.3533 305.545 18.2527 305.557L36.3973 305.795C63.7142 312.65 41.3935 317.817 190.13 319.764C240.723 320.426 311.156 320.715 409.999 320.571L411.409 323.714C411.669 324.293 411.79 324.823 411.792 325.312C411.8 326.043 411.536 326.668 411.048 327.104C410.554 327.537 409.861 327.783 408.961 327.771L25.9683 322.757L27.1853 325.47Z" fill="#A65833"/>
<path d="M27.1852 325.472L28.4022 328.185L411.395 333.199C412.759 333.217 413.96 332.97 414.936 332.501C416.401 331.797 417.377 330.612 417.77 329.104C418.162 327.598 417.964 325.758 417.078 323.79L413.05 314.812C412.467 313.503 411.622 312.24 410.603 311.091C409.074 309.366 407.165 307.899 405.112 306.847C403.064 305.799 400.862 305.17 398.812 305.147L15.8186 300.133C14.449 300.112 13.251 300.362 12.2747 300.831C10.8092 301.535 9.83383 302.719 9.44299 304.228C9.05014 305.733 9.24898 307.574 10.1312 309.538L14.1586 318.516C14.7472 319.829 15.5912 321.091 16.6092 322.241C18.1367 323.966 20.0473 325.433 22.0984 326.484C24.1464 327.532 26.35 328.162 28.4022 328.185L27.1852 325.472L25.9682 322.759C25.3674 322.751 24.7589 322.632 24.1524 322.415C23.247 322.098 22.3484 321.561 21.591 320.9C20.8304 320.232 20.2156 319.455 19.8266 318.59L15.7993 309.612C15.5416 309.037 15.4229 308.507 15.4187 308.018C15.4132 307.287 15.6779 306.662 16.1654 306.226C16.6567 305.793 17.3532 305.547 18.2526 305.559L401.245 310.573C401.846 310.581 402.452 310.7 403.06 310.916C403.965 311.234 404.862 311.767 405.622 312.432C406.38 313.1 406.996 313.877 407.382 314.738L411.409 323.716C411.669 324.295 411.79 324.825 411.792 325.314C411.8 326.044 411.536 326.67 411.048 327.106C410.554 327.538 409.861 327.785 408.961 327.773L25.9682 322.759L27.1852 325.472" fill="#1A1D63"/>
<path d="M101.906 303.014L304.624 305.667C310.312 305.742 313.621 301.142 312.014 295.395L310.895 291.395C310.264 289.141 307.943 287.289 305.712 287.26L90.4745 284.443C88.2432 284.413 86.9462 286.218 87.5767 288.472L88.6958 292.472C90.3035 298.218 96.218 302.939 101.906 303.014Z" fill="#999999"/>
<path d="M89.2428 294.104C91.2872 299.059 96.8386 302.944 102.263 303.015L304.267 305.66C309.692 305.731 313.103 301.963 312.379 297.025C311.002 297.923 309.24 298.429 307.192 298.402L95.2401 295.627C93.194 295.601 91.1349 295.044 89.2428 294.104Z" fill="#808080"/>
<path d="M87.9498 289.8L88.2812 290.984L311.595 293.908L311.263 292.723C310.654 290.544 308.29 288.756 305.982 288.726L91.0252 285.912C88.7187 285.882 87.3402 287.621 87.9498 289.8Z" fill="#CCCCCC"/>
<path d="M101.907 303.013L102.621 305.566L305.339 308.22C307.105 308.243 308.695 307.901 310.047 307.264C312.077 306.31 313.572 304.695 314.376 302.647C315.183 300.602 315.29 298.103 314.542 295.428L313.422 291.427C313.168 290.518 312.737 289.638 312.182 288.84C311.349 287.639 310.238 286.62 308.99 285.891C307.745 285.163 306.35 284.724 305 284.71L89.7618 281.892C88.8609 281.877 88.0432 282.053 87.3504 282.38C86.3096 282.868 85.5472 283.696 85.1348 284.742C84.7224 285.788 84.6669 287.073 85.0499 288.438L86.169 292.438C86.6677 294.222 87.5051 295.936 88.5894 297.496C90.2163 299.838 92.3919 301.834 94.828 303.256C97.2631 304.682 99.9731 305.532 102.621 305.566L101.907 303.013L101.192 300.46C100.112 300.446 99.0345 300.211 97.9953 299.804C96.4373 299.19 94.9668 298.177 93.777 296.91C92.5872 295.643 91.6825 294.142 91.2234 292.504L90.1042 288.504C90.0436 288.286 90.0315 288.093 90.0565 287.913C90.0931 287.642 90.2216 287.407 90.4188 287.246C90.6164 287.083 90.8684 286.994 91.1895 286.995L306.427 289.813C306.644 289.819 306.848 289.862 307.047 289.94C307.349 290.059 307.64 290.26 307.87 290.507C308.105 290.757 308.274 291.038 308.368 291.361L309.487 295.361C309.793 296.454 309.861 297.476 309.733 298.411C309.536 299.809 308.886 301.001 307.879 301.829C306.873 302.66 305.531 303.131 303.911 303.114L101.192 300.46L101.907 303.013Z" fill="#1A1D63"/>
<path d="M102.872 295.726L98.4192 295.668C97.7258 295.13 97.1895 294.407 96.9667 293.61C96.6666 292.538 97.0167 291.606 97.7877 291.108L100.947 291.149C102.004 291.672 102.879 292.619 103.18 293.692C103.402 294.488 103.268 295.202 102.872 295.726" fill="#3A3C71"/>
<path d="M100.894 296.582C100.021 296.57 99.1371 296.22 98.4203 295.668L102.873 295.726C102.461 296.263 101.767 296.593 100.894 296.582" fill="#34366A"/>
<path d="M100.946 291.149L97.7871 291.107C98.1777 290.855 98.6756 290.712 99.2525 290.72C99.8293 290.727 100.411 290.884 100.946 291.149Z" fill="#47497D"/>
<path d="M303.764 297.414L299.285 297.355C298.807 297.349 298.306 296.952 298.17 296.465L297.842 295.291C297.706 294.808 297.987 294.418 298.465 294.424L302.943 294.483C303.422 294.489 303.92 294.889 304.055 295.372L304.384 296.547C304.52 297.034 304.242 297.42 303.764 297.414Z" fill="#33366E"/>
<path d="M60.0651 170.415L96.6539 273.427C100.178 283.351 111.074 291.149 121.612 291.287L278.187 293.336C288.727 293.474 295.322 285.905 293.3 276.001L272.306 173.193C270.788 165.765 262.775 159.358 254.873 159.255L69.7994 156.832C61.8957 156.728 57.4216 162.972 60.0651 170.415" fill="#999999"/>
<path d="M82.2804 232.955L96.6561 273.429C100.179 283.353 111.077 291.151 121.616 291.289L278.189 293.338C288.726 293.476 295.327 285.907 293.302 276.003L289.378 256.781C242.667 259.311 149.696 260.051 82.2804 232.955" fill="#808080"/>
<path d="M60.0685 170.42L96.657 273.433C98.1612 277.675 101.019 281.529 104.618 284.561L70.5163 170.689C69.7848 168.254 71.3071 166.283 73.8892 166.317L256.306 168.705C258.891 168.739 261.529 170.764 262.159 173.198L291.691 286.759C293.495 283.835 294.146 280.126 293.303 276.007L272.308 173.199C270.79 165.767 262.777 159.36 254.875 159.257L69.8009 156.834C61.8989 156.731 57.4247 162.974 60.0685 170.42" fill="#CCCCCC"/>
<path d="M60.0671 170.418L57.6025 170.582L94.1904 273.592C95.1968 276.427 96.7342 279.116 98.6499 281.539C101.525 285.176 105.243 288.223 109.339 290.373C113.434 292.523 117.92 293.785 122.328 293.843L278.904 295.893C284.784 295.97 289.592 293.896 292.653 290.388C294.185 288.631 295.279 286.515 295.848 284.121C296.418 281.73 296.453 279.061 295.877 276.232L274.883 173.427C274.808 173.049 274.716 172.671 274.612 172.3C274.017 170.173 272.983 168.12 271.64 166.261C269.62 163.47 266.911 161.105 263.88 159.427C260.848 157.745 257.48 156.748 254.161 156.705L69.0871 154.282C64.6581 154.224 61.1078 155.87 58.9599 158.603C57.8852 159.969 57.1575 161.612 56.8475 163.449C56.5368 165.287 56.6489 167.327 57.2448 169.455C57.3486 169.826 57.4682 170.204 57.6025 170.582L60.0671 170.418L62.5326 170.257C62.4445 170.008 62.3665 169.763 62.2989 169.521C61.9119 168.135 61.8388 166.822 62.042 165.614C62.3462 163.803 63.2827 162.228 64.7389 161.117C66.1942 160.003 68.1577 159.358 70.5158 159.388L255.59 161.811C258.73 161.852 261.853 163.09 264.372 165.003C265.634 165.962 266.736 167.082 267.622 168.305C268.505 169.527 269.17 170.849 269.558 172.234C269.625 172.476 269.684 172.721 269.733 172.969L290.727 275.778C291.161 277.903 291.133 279.894 290.706 281.703C290.062 284.415 288.507 286.708 286.23 288.313C283.957 289.918 280.969 290.832 277.475 290.786L120.9 288.737C116.242 288.676 111.533 286.921 107.624 284.126C105.67 282.727 103.919 281.069 102.472 279.239C101.024 277.405 99.878 275.399 99.1214 273.269L62.5326 170.257L60.0671 170.418" fill="#1A1D63"/>
<path d="M161.008 224.998C161.008 214.506 169.516 205.998 180.008 205.998C190.503 205.998 199.008 214.506 199.008 224.998C199.008 235.493 190.503 243.998 180.008 243.998C169.516 243.998 161.008 235.493 161.008 224.998" fill="#F2F2F2"/>
<path d="M172.781 223.271C172.712 222.695 172.436 222.248 171.951 221.93C171.466 221.612 170.871 221.453 170.167 221.453C169.652 221.453 169.201 221.536 168.815 221.703C168.432 221.869 168.133 222.098 167.917 222.39C167.705 222.682 167.599 223.013 167.599 223.384C167.599 223.695 167.673 223.962 167.82 224.186C167.972 224.405 168.165 224.589 168.4 224.737C168.635 224.881 168.881 225 169.138 225.095C169.396 225.186 169.633 225.259 169.849 225.316L171.031 225.634C171.334 225.714 171.671 225.824 172.042 225.964C172.417 226.104 172.775 226.295 173.116 226.538C173.46 226.776 173.745 227.083 173.968 227.458C174.192 227.833 174.303 228.294 174.303 228.839C174.303 229.468 174.138 230.036 173.809 230.544C173.483 231.051 173.006 231.454 172.377 231.754C171.752 232.053 170.993 232.203 170.099 232.203C169.265 232.203 168.544 232.068 167.934 231.799C167.328 231.53 166.851 231.155 166.502 230.674C166.157 230.193 165.962 229.634 165.917 228.998L167.371 228.998C167.409 229.437 167.557 229.801 167.815 230.089C168.076 230.373 168.406 230.585 168.803 230.725C169.205 230.862 169.637 230.93 170.099 230.93C170.637 230.93 171.12 230.843 171.548 230.669C171.976 230.49 172.315 230.244 172.565 229.93C172.815 229.612 172.94 229.24 172.94 228.816C172.94 228.43 172.832 228.115 172.616 227.873C172.4 227.631 172.116 227.434 171.763 227.282C171.411 227.131 171.031 226.998 170.621 226.884L169.19 226.475C168.281 226.214 167.561 225.841 167.031 225.356C166.5 224.871 166.235 224.237 166.235 223.453C166.235 222.801 166.411 222.233 166.763 221.748C167.12 221.259 167.597 220.881 168.195 220.612C168.798 220.339 169.47 220.203 170.212 220.203C170.962 220.203 171.629 220.337 172.212 220.606C172.796 220.871 173.258 221.235 173.599 221.697C173.943 222.159 174.125 222.684 174.144 223.271L172.781 223.271ZM186.438 226.18C186.438 227.407 186.217 228.468 185.773 229.362C185.33 230.256 184.722 230.945 183.95 231.43C183.177 231.915 182.294 232.157 181.302 232.157C180.309 232.157 179.427 231.915 178.654 231.43C177.881 230.945 177.273 230.256 176.83 229.362C176.387 228.468 176.165 227.407 176.165 226.18C176.165 224.953 176.387 223.892 176.83 222.998C177.273 222.104 177.881 221.415 178.654 220.93C179.427 220.445 180.309 220.203 181.302 220.203C182.294 220.203 183.177 220.445 183.95 220.93C184.722 221.415 185.33 222.104 185.773 222.998C186.217 223.892 186.438 224.953 186.438 226.18ZM185.075 226.18C185.075 225.172 184.906 224.322 184.569 223.629C184.236 222.936 183.783 222.411 183.211 222.055C182.643 221.699 182.006 221.521 181.302 221.521C180.597 221.521 179.959 221.699 179.387 222.055C178.819 222.411 178.366 222.936 178.029 223.629C177.696 224.322 177.529 225.172 177.529 226.18C177.529 227.187 177.696 228.038 178.029 228.731C178.366 229.424 178.819 229.949 179.387 230.305C179.959 230.661 180.597 230.839 181.302 230.839C182.006 230.839 182.643 230.661 183.211 230.305C183.783 229.949 184.236 229.424 184.569 228.731C184.906 228.038 185.075 227.187 185.075 226.18ZM188.808 231.998L188.808 220.362L190.217 220.362L190.217 230.748L195.626 230.748L195.626 231.998L188.808 231.998Z" fill="black"/>
</svg>
